<svg width="107" height="26" viewBox="0 0 107 26" fill="none" xmlns="http://www.w3.org/2000/svg">
<g opacity="0.9">
<path fill-rule="evenodd" clip-rule="evenodd" d="M40.3167 0.342105H0.683333C0.494636 0.342105 0.341667 0.495271 0.341667 0.684211V25.3158C0.341667 25.5047 0.494636 25.6579 0.683333 25.6579H40.3167C40.5054 25.6579 40.6583 25.5047 40.6583 25.3158V0.684211C40.6583 0.495271 40.5054 0.342105 40.3167 0.342105ZM0.683333 0C0.305939 0 0 0.306332 0 0.684211V25.3158C0 25.6937 0.305938 26 0.683333 26H40.3167C40.6941 26 41 25.6937 41 25.3158V0.684211C41 0.306332 40.6941 0 40.3167 0H0.683333Z" fill="#F0F0F0"/>
<path fill-rule="evenodd" clip-rule="evenodd" d="M0.939559 0.941535V23.2563H40.0604V0.941535H0.939559ZM0.597892 0.257324C0.409195 0.257324 0.256226 0.41049 0.256226 0.599429V23.5984C0.256226 23.7873 0.409195 23.9405 0.597893 23.9405H40.4021C40.5908 23.9405 40.7437 23.7873 40.7437 23.5984V0.59943C40.7437 0.41049 40.5908 0.257324 40.4021 0.257324H0.597892Z" fill="#DCDCDC"/>
<path opacity="0.33" d="M0.768799 1.02979H40.2313V22.3961H0.768799V1.02979Z" fill="white"/>
<path d="M20.8186 12.418C21.8437 12.418 22.6203 12.04 23.0345 11.3837L22.0094 10.9164C21.7781 11.2875 21.3674 11.4937 20.8566 11.4937C20.1594 11.4937 19.7072 11.1603 19.6589 10.6243H23.1207V10.3081C23.1207 10.0195 23.0793 9.75833 22.9965 9.52466H21.7056C21.7471 9.62431 21.7712 9.73771 21.7712 9.86485V9.88891H19.652C19.6624 9.75489 19.6934 9.63118 19.7417 9.52466H18.7063V11.5487C19.1101 12.1088 19.8453 12.418 20.8186 12.418Z" fill="#DCDCDC"/>
<path d="M20.7565 12.8711C19.8246 12.8711 19.1067 13.1941 18.7063 13.7714V14.3418H19.6831C19.7935 13.9054 20.1697 13.6477 20.7392 13.6477C21.2984 13.6477 21.6815 13.9054 21.7574 14.3418H23.0483C22.8136 13.4072 22.0094 12.8711 20.7565 12.8711Z" fill="#DCDCDC"/>
</g>
<mask id="mask0_3104_11739" style="mask-type:alpha" maskUnits="userSpaceOnUse" x="59" y="6" width="48" height="13">
<rect x="59.5082" y="6.47363" width="47.1429" height="11.8421" fill="url(#paint0_linear_3104_11739)"/>
</mask>
<g mask="url(#mask0_3104_11739)">
<path fill-rule="evenodd" clip-rule="evenodd" d="M61.1733 7.9091L61.1733 16.0909L68.4527 16.0909L68.4527 7.9091L61.1733 7.9091ZM61 16.2424L68.6261 16.2424L68.6261 7.75758L61 7.75758L61 16.2424Z" fill="white"/>
<path fill-rule="evenodd" clip-rule="evenodd" d="M68.626 7.15151L68.626 16.8485L86.8245 16.8485L86.8245 7.15151L68.626 7.15151ZM68.4526 17L86.9978 17L86.9978 7L68.4526 7L68.4526 17Z" fill="white"/>
<rect x="61.1731" y="16.1069" width="1.21212" height="7.27941" transform="rotate(-90 61.1731 16.1069)" fill="#F0F0F0"/>
<rect x="68.626" y="16.8245" width="1.66667" height="18.1985" transform="rotate(-90 68.626 16.8245)" fill="#F0F0F0"/>
<rect x="86.998" y="12.7896" width="1.06061" height="21.145" transform="rotate(-90 86.998 12.7896)" fill="#F0F0F0"/>
<path fill-rule="evenodd" clip-rule="evenodd" d="M86.998 11.091L86.998 12.7577L107.97 12.7577L107.97 11.091L86.998 11.091ZM86.8247 12.9092L108.143 12.9092L108.143 10.9395L86.8247 10.9395L86.8247 12.9092Z" fill="white"/>
</g>
<defs>
<linearGradient id="paint0_linear_3104_11739" x1="83.0796" y1="6.47363" x2="104.413" y2="6.47363" gradientUnits="userSpaceOnUse">
<stop stop-color="#C4C4C4"/>
<stop offset="1" stop-color="#C4C4C4" stop-opacity="0"/>
</linearGradient>
</defs>
</svg>
