<svg width="138" height="87" viewBox="0 0 138 87" fill="none" xmlns="http://www.w3.org/2000/svg">
<g opacity="0.9">
<path fill-rule="evenodd" clip-rule="evenodd" d="M135.7 1.14474H2.3C1.66487 1.14474 1.15 1.65725 1.15 2.28948V84.7105C1.15 85.3428 1.66487 85.8553 2.3 85.8553H135.7C136.335 85.8553 136.85 85.3428 136.85 84.7105V2.28947C136.85 1.65725 136.335 1.14474 135.7 1.14474ZM2.3 0C1.02975 0 0 1.02503 0 2.28948V84.7105C0 85.975 1.02974 87 2.3 87H135.7C136.97 87 138 85.975 138 84.7105V2.28947C138 1.02503 136.97 0 135.7 0H2.3Z" fill="#8F948A"/>
<path fill-rule="evenodd" clip-rule="evenodd" d="M3.16328 3.15275V77.8213H134.838V3.15275H3.16328ZM2.01328 0.863281C1.37815 0.863281 0.863281 1.3758 0.863281 2.00802V78.9661C0.863281 79.5983 1.37815 80.1108 2.01328 80.1108H135.988C136.623 80.1108 137.138 79.5983 137.138 78.9661V2.00802C137.138 1.3758 136.623 0.863281 135.988 0.863281H2.01328Z" fill="#606060"/>
<path opacity="0.1" d="M2.30078 3.43359H135.701V77.8415H2.30078V3.43359Z" fill="url(#paint0_radial_7174_46521)"/>
<path d="M70.0707 41.5528C73.521 41.5528 76.1348 40.288 77.5289 38.0918L74.0786 36.528C73.3002 37.7698 71.9178 38.4597 70.1984 38.4597C67.8518 38.4597 66.3299 37.3444 66.1673 35.5506H77.8193V34.4927C77.8193 33.5269 77.6799 32.653 77.4011 31.8711H73.0563C73.1957 32.2045 73.277 32.584 73.277 33.0094V33.0899H66.144C66.1789 32.6415 66.2835 32.2275 66.4461 31.8711H62.9609V38.6437C64.3201 40.5179 66.7946 41.5528 70.0707 41.5528Z" fill="#606060"/>
<path d="M69.8615 43.0703C66.7249 43.0703 64.3085 44.1512 62.9609 46.0829V47.9917H66.2486C66.6204 46.5314 67.8866 45.669 69.8035 45.669C71.6854 45.669 72.975 46.5314 73.2305 47.9917H77.5754C76.7854 44.8641 74.0786 43.0703 69.8615 43.0703Z" fill="#606060"/>
</g>
<defs>
<radialGradient id="paint0_radial_7174_46521" cx="0" cy="0" r="1" gradientUnits="userSpaceOnUse" gradientTransform="translate(114.911 28.9833) rotate(147.172) scale(79.3761 149.447)">
<stop stop-color="#1D1F1C"/>
<stop offset="1" stop-color="#3A3333"/>
</radialGradient>
</defs>
</svg>
