<svg width="158" height="107" viewBox="0 0 158 107" fill="none" xmlns="http://www.w3.org/2000/svg">
<g opacity="0.9" filter="url(#filter0_d_4072_19467)">
<path fill-rule="evenodd" clip-rule="evenodd" d="M145.7 11.1447H12.3C11.6649 11.1447 11.15 11.6573 11.15 12.2895V94.7105C11.15 95.3428 11.6649 95.8553 12.3 95.8553H145.7C146.335 95.8553 146.85 95.3428 146.85 94.7105V12.2895C146.85 11.6573 146.335 11.1447 145.7 11.1447ZM12.3 10C11.0297 10 10 11.025 10 12.2895V94.7105C10 95.975 11.0297 97 12.3 97H145.7C146.97 97 148 95.975 148 94.7105V12.2895C148 11.025 146.97 10 145.7 10H12.3Z" fill="#F0F0F0"/>
<path fill-rule="evenodd" clip-rule="evenodd" d="M13.1625 13.1509V87.8194H144.837V13.1509H13.1625ZM12.0125 10.8614C11.3774 10.8614 10.8625 11.3739 10.8625 12.0061V88.9642C10.8625 89.5964 11.3774 90.1089 12.0125 90.1089H145.988C146.623 90.1089 147.137 89.5964 147.137 88.9642V12.0061C147.137 11.3739 146.623 10.8614 145.988 10.8614H12.0125Z" fill="#F0F0F0"/>
<path opacity="0.1" d="M12.5875 13.4455H145.412V84.9406H12.5875V13.4455Z" fill="#DCDCDC"/>
<path d="M80.0722 51.553C83.5225 51.553 86.1364 50.2882 87.5304 48.092L84.0801 46.5282C83.3018 47.77 81.9193 48.4599 80.2 48.4599C77.8533 48.4599 76.3315 47.3446 76.1688 45.5508H87.8209V44.4929C87.8209 43.5271 87.6815 42.6532 87.4027 41.8713H83.0578C83.1972 42.2047 83.2786 42.5842 83.2786 43.0096V43.0901H76.1456C76.1805 42.6417 76.285 42.2277 76.4476 41.8713H72.9625V48.6439C74.3217 50.5181 76.7962 51.553 80.0722 51.553Z" fill="#F0F0F0"/>
<path d="M79.8631 53.0693C76.7265 53.0693 74.3101 54.1502 72.9625 56.0819V57.9907H76.2502C76.6219 56.5303 77.8882 55.668 79.805 55.668C81.687 55.668 82.9765 56.5303 83.2321 57.9907H87.5769C86.787 54.8631 84.0801 53.0693 79.8631 53.0693Z" fill="#F0F0F0"/>
</g>
<defs>
<filter id="filter0_d_4072_19467" x="0" y="0" width="158" height="107" filterUnits="userSpaceOnUse" color-interpolation-filters="sRGB">
<feFlood flood-opacity="0" result="BackgroundImageFix"/>
<feColorMatrix in="SourceAlpha" type="matrix" values="0 0 0 0 0 0 0 0 0 0 0 0 0 0 0 0 0 0 127 0" result="hardAlpha"/>
<feOffset/>
<feGaussianBlur stdDeviation="5"/>
<feComposite in2="hardAlpha" operator="out"/>
<feColorMatrix type="matrix" values="0 0 0 0 0.425 0 0 0 0 0.425 0 0 0 0 0.425 0 0 0 1 0"/>
<feBlend mode="normal" in2="BackgroundImageFix" result="effect1_dropShadow_4072_19467"/>
<feBlend mode="normal" in="SourceGraphic" in2="effect1_dropShadow_4072_19467" result="shape"/>
</filter>
</defs>
</svg>
