<svg width="132" height="76" viewBox="0 0 132 76" fill="none" xmlns="http://www.w3.org/2000/svg">
<path fill-rule="evenodd" clip-rule="evenodd" d="M6.65116 1.54054V66.2432H126.372V1.54054H6.65116ZM6.13953 0C5.5744 0 5.11627 0.459815 5.11627 1.02703V66.7568C5.11627 67.324 5.5744 67.7838 6.13953 67.7838H126.884C127.449 67.7838 127.907 67.324 127.907 66.7568V1.02703C127.907 0.459816 127.449 0 126.884 0H6.13953Z" fill="#F0F0F0"/>
<path d="M64.639 4.4089C64.639 3.78635 65.1418 3.28168 65.7621 3.28168H66.2113C66.8316 3.28168 67.3344 3.78635 67.3344 4.4089C67.3344 5.03145 66.8316 5.53613 66.2113 5.53613H65.7621C65.1418 5.53613 64.639 5.03145 64.639 4.4089Z" fill="#F0F0F0"/>
<path opacity="0.1" d="M8.68605 7.68918H123.314V63.1757H8.68605V7.68918Z" fill="white" stroke="white"/>
<path fill-rule="evenodd" clip-rule="evenodd" d="M132 69.8378H0C0 70.3698 0.0671559 70.886 0.193422 71.3784C0.874977 74.0362 3.27876 76 6.13954 76H125.86C128.721 76 131.125 74.0362 131.807 71.3784C131.933 70.886 132 70.3698 132 69.8378ZM130.203 71.3784H1.7969C2.42902 73.1734 4.13464 74.4595 6.13954 74.4595H125.86C127.865 74.4595 129.571 73.1734 130.203 71.3784Z" fill="#F0F0F0"/>
<path d="M55.2558 71.8919H75.7209V72.9189H55.2558V71.8919Z" fill="#F0F0F0"/>
</svg>
