<svg width="132" height="76" viewBox="0 0 132 76" fill="none" xmlns="http://www.w3.org/2000/svg">
<g opacity="0.66">
<path fill-rule="evenodd" clip-rule="evenodd" d="M6.65207 1.54054V66.2432H126.373V1.54054H6.65207ZM6.14044 0C5.57531 0 5.11719 0.459815 5.11719 1.02703V66.7568C5.11719 67.324 5.57531 67.7838 6.14044 67.7838H126.885C127.45 67.7838 127.908 67.324 127.908 66.7568V1.02703C127.908 0.459816 127.45 0 126.885 0H6.14044Z" fill="#303030"/>
<path d="M64.6387 4.40847C64.6387 3.78593 65.1415 3.28125 65.7618 3.28125H66.211C66.8313 3.28125 67.3341 3.78593 67.3341 4.40847V4.40847C67.3341 5.03102 66.8313 5.5357 66.211 5.5357H65.7618C65.1415 5.5357 64.6387 5.03102 64.6387 4.40847V4.40847Z" fill="#5A5A5A"/>
<path opacity="0.1" d="M8.18555 7.18945H123.813V63.6759H8.18555V7.18945Z" fill="#5A5A5A"/>
<path fill-rule="evenodd" clip-rule="evenodd" d="M132 69.8379H0C0 70.3698 0.0671559 70.886 0.193422 71.3784C0.874977 74.0362 3.27876 76.0001 6.13954 76.0001H125.86C128.721 76.0001 131.125 74.0362 131.807 71.3784C131.933 70.886 132 70.3698 132 69.8379ZM130.203 71.3784H1.7969C2.42902 73.1735 4.13464 74.4595 6.13954 74.4595H125.86C127.865 74.4595 129.571 73.1735 130.203 71.3784Z" fill="#5A5A5A"/>
<path d="M55.2559 71.8916H75.721V72.9186H55.2559V71.8916Z" fill="#5A5A5A"/>
</g>
</svg>
