<svg width="133" height="83" viewBox="0 0 133 83" fill="none" xmlns="http://www.w3.org/2000/svg">
<g opacity="0.5">
<rect width="120" height="63" fill="#D4D4D4"/>
<rect x="1" y="1" width="118" height="61" rx="1" stroke="white" stroke-width="2"/>
</g>
<g opacity="0.9">
<path fill-rule="evenodd" clip-rule="evenodd" d="M131 8H15C14.4477 8 14 8.44772 14 9V81C14 81.5523 14.4477 82 15 82H131C131.552 82 132 81.5523 132 81V9C132 8.44771 131.552 8 131 8ZM15 7C13.8954 7 13 7.89543 13 9V81C13 82.1046 13.8954 83 15 83H131C132.105 83 133 82.1046 133 81V9C133 7.89543 132.105 7 131 7H15Z" fill="#F0F0F0"/>
<path fill-rule="evenodd" clip-rule="evenodd" d="M15.75 9.75247V74.9802H130.25V9.75247H15.75ZM14.75 7.75247C14.1977 7.75247 13.75 8.20019 13.75 8.75247V75.9802C13.75 76.5325 14.1977 76.9802 14.75 76.9802H131.25C131.802 76.9802 132.25 76.5325 132.25 75.9802V8.75247C132.25 8.20019 131.802 7.75247 131.25 7.75247H14.75Z" fill="#F0F0F0"/>
<path opacity="0.5" d="M15.25 10.0099H130.75V72.4653H15.25V10.0099Z" fill="#DCDCDC"/>
<path d="M73.9324 43.2992C76.9326 43.2992 79.2056 42.1943 80.4178 40.2757L77.4175 38.9097C76.7407 39.9945 75.5386 40.5972 74.0435 40.5972C72.0029 40.5972 70.6796 39.6228 70.5381 38.0559H80.6703V37.1318C80.6703 36.288 80.5491 35.5246 80.3067 34.8416H76.5286C76.6498 35.1329 76.7205 35.4644 76.7205 35.836V35.9063H70.5179C70.5482 35.5146 70.6391 35.153 70.7806 34.8416H67.75V40.7579C68.9319 42.3952 71.0836 43.2992 73.9324 43.2992Z" fill="#F0F0F0"/>
<path d="M73.7505 44.6238C71.023 44.6238 68.9218 45.568 67.75 47.2555V48.9229H70.6088C70.9321 47.6472 72.0332 46.8939 73.7 46.8939C75.3365 46.8939 76.4578 47.6472 76.6801 48.9229H80.4582C79.7713 46.1907 77.4175 44.6238 73.7505 44.6238Z" fill="#F0F0F0"/>
</g>
</svg>
