<svg width="120" height="76" viewBox="0 0 120 76" fill="none" xmlns="http://www.w3.org/2000/svg">
<g opacity="0.9">
<path fill-rule="evenodd" clip-rule="evenodd" d="M118 1H2C1.44772 1 1 1.44772 1 2V74C1 74.5523 1.44771 75 2 75H118C118.552 75 119 74.5523 119 74V2C119 1.44771 118.552 1 118 1ZM2 0C0.895431 0 0 0.895432 0 2V74C0 75.1046 0.895429 76 2 76H118C119.105 76 120 75.1046 120 74V2C120 0.895431 119.105 0 118 0H2Z" fill="#8F948A"/>
<path fill-rule="evenodd" clip-rule="evenodd" d="M2.75 2.75244V67.9802H117.25V2.75244H2.75ZM1.75 0.752441C1.19772 0.752441 0.75 1.20016 0.75 1.75244V68.9802C0.75 69.5325 1.19772 69.9802 1.75 69.9802H118.25C118.802 69.9802 119.25 69.5325 119.25 68.9802V1.75244C119.25 1.20016 118.802 0.752441 118.25 0.752441H1.75Z" fill="#606060"/>
<path opacity="0.1" d="M2.25 3.00989H117.75V65.4653H2.25V3.00989Z" fill="url(#paint0_radial_89_890)"/>
<path d="M60.9324 36.2991C63.9326 36.2991 66.2056 35.1942 67.4178 33.2757L64.4175 31.9096C63.7407 32.9945 62.5386 33.5971 61.0435 33.5971C59.0029 33.5971 57.6796 32.6228 57.5381 31.0558H67.6703V30.1317C67.6703 29.288 67.5491 28.5246 67.3067 27.8416H63.5286C63.6498 28.1328 63.7205 28.4643 63.7205 28.836V28.9063H57.5179C57.5482 28.5145 57.6391 28.1529 57.7806 27.8416H54.75V33.7579C55.9319 35.3951 58.0836 36.2991 60.9324 36.2991Z" fill="#606060"/>
<path d="M60.7505 37.6238C58.023 37.6238 55.9218 38.568 54.75 40.2555V41.9229H57.6088C57.9321 40.6472 59.0332 39.8939 60.7 39.8939C62.3365 39.8939 63.4578 40.6472 63.6801 41.9229H67.4582C66.7713 39.1907 64.4175 37.6238 60.7505 37.6238Z" fill="#606060"/>
</g>
<defs>
<radialGradient id="paint0_radial_89_890" cx="0" cy="0" r="1" gradientUnits="userSpaceOnUse" gradientTransform="translate(99.75 24.4554) rotate(147.977) scale(68.1148 126.565)">
<stop stop-color="#1D1F1C"/>
<stop offset="1" stop-color="#3A3333"/>
</radialGradient>
</defs>
</svg>
