<svg width="20" height="20" viewBox="0 0 20 20" fill="none" xmlns="http://www.w3.org/2000/svg">
<path fill-rule="evenodd" clip-rule="evenodd" d="M10 2.5C5.85786 2.5 2.5 5.85786 2.5 10C2.5 14.1421 5.85786 17.5 10 17.5C14.1421 17.5 17.5 14.1421 17.5 10C17.5 5.85786 14.1421 2.5 10 2.5ZM1.5 10C1.5 5.30558 5.30558 1.5 10 1.5C14.6944 1.5 18.5 5.30558 18.5 10C18.5 14.6944 14.6944 18.5 10 18.5C5.30558 18.5 1.5 14.6944 1.5 10Z" fill="white"/>
<path fill-rule="evenodd" clip-rule="evenodd" d="M9.78418 12.8106L9.78418 7.18896L10.2842 7.18896L10.2842 12.8106L9.78418 12.8106Z" fill="white"/>
<path fill-rule="evenodd" clip-rule="evenodd" d="M7.18893 9.78369L12.8105 9.78369L12.8105 10.2837L7.18893 10.2837L7.18893 9.78369Z" fill="white"/>
</svg>
