<svg width="19" height="23" viewBox="0 0 19 23" fill="none" xmlns="http://www.w3.org/2000/svg">
<path d="M12.8981 3.17236C11.8007 3.31358 10.7945 3.89469 10.0831 4.79813C9.46825 5.58925 8.9719 6.77594 9.1608 7.93098C9.71287 7.91852 10.2552 7.77295 10.7471 7.50512C11.2391 7.23729 11.668 6.85414 12.0017 6.38434C12.3417 5.93826 12.5958 5.42492 12.7496 4.87374C12.9034 4.32257 12.9539 3.7444 12.8981 3.17236Z" fill="black"/>
<path d="M16.9382 9.82452C16.5205 9.26556 15.9839 8.80587 15.3668 8.47847C14.7498 8.15107 14.0677 7.9641 13.3696 7.93103C11.6917 7.93103 10.9855 8.7324 9.81962 8.7324C8.65374 8.7324 7.70835 7.93476 6.25848 7.93476C4.80861 7.93476 3.32137 8.80324 2.35728 10.2867C1.0083 12.3778 1.23624 16.3065 3.42973 19.6499C4.21072 20.8501 5.25702 22.1957 6.62841 22.2069C7.84287 22.2069 8.18666 21.4279 9.83832 21.4204C11.49 21.413 11.8001 22.2181 13.0183 22.2032C14.386 22.2032 15.4883 20.7122 16.273 19.5045C16.7458 18.7912 17.1499 18.0349 17.48 17.2458C14.3112 16.0418 13.803 11.5466 16.9382 9.82452Z" fill="black"/>
</svg>
