<svg width="113" height="22" viewBox="0 0 113 22" fill="none" xmlns="http://www.w3.org/2000/svg">
<path fill-rule="evenodd" clip-rule="evenodd" d="M111.489 18.8585L112 17.9994C112.512 17.1404 112.512 17.1402 112.512 17.14L112.506 17.1364L112.488 17.1261L112.422 17.0869C112.363 17.0526 112.277 17.0024 112.164 16.9371C111.939 16.8067 111.606 16.6165 111.174 16.3752C110.309 15.8927 109.048 15.2056 107.451 14.3835C104.258 12.7398 99.7214 10.5543 94.3424 8.38483C83.605 4.05417 69.4208 -0.249896 55.8334 0.0113181C42.2678 0.27211 28.4239 4.56918 18.0105 8.77127C12.7954 10.8757 8.42257 12.9638 5.35181 14.5267C4.24408 15.0905 3.30537 15.5861 2.55722 15.9898L4.23606 9.54241C4.37523 9.00795 4.05478 8.46186 3.52032 8.32269C2.98586 8.18352 2.43977 8.50397 2.3006 9.03843L0.0327148 17.748C-0.106461 18.2825 0.213989 18.8286 0.748451 18.9677L9.45803 21.2356C9.99249 21.3748 10.5386 21.0543 10.6777 20.5199C10.8169 19.9854 10.4965 19.4393 9.96201 19.3002L3.67043 17.6619C4.37734 17.2819 5.24592 16.8247 6.25899 16.3091C9.28892 14.767 13.6082 12.7044 18.7589 10.626C29.077 6.46232 42.6592 2.26496 55.8718 2.01095C69.0625 1.75736 82.9523 5.94745 93.5943 10.2396C98.9049 12.3816 103.385 14.5397 106.535 16.1617C108.11 16.9725 109.352 17.6488 110.199 18.1215C110.622 18.3578 110.946 18.5431 111.164 18.6688C111.273 18.7317 111.355 18.7797 111.409 18.8116L111.47 18.8474L111.485 18.8561L111.489 18.8585Z" fill="#303030"/>
</svg>
