<svg width="12" height="14" viewBox="0 0 12 14" fill="none" xmlns="http://www.w3.org/2000/svg">
<path fill-rule="evenodd" clip-rule="evenodd" d="M4.8 1.04961H7.2V1.74961H4.8V1.04961ZM4.2 1.74961V1.04961C4.2 0.66301 4.46863 0.349609 4.8 0.349609H7.2C7.53137 0.349609 7.8 0.66301 7.8 1.04961V1.74961H10.8C11.4627 1.74961 12 2.37641 12 3.14961C12 3.92281 11.4627 4.54961 10.8 4.54961V11.5496C10.8 12.7094 9.99411 13.6496 9 13.6496H3C2.00589 13.6496 1.2 12.7094 1.2 11.5496L1.2 4.54961C0.537259 4.54961 0 3.92281 0 3.14961C0 2.37641 0.537258 1.74961 1.2 1.74961H4.2ZM7.2 2.44961H4.8H1.2C0.868629 2.44961 0.6 2.76301 0.6 3.14961C0.6 3.53621 0.868629 3.84961 1.2 3.84961H1.8H10.2H10.8C11.1314 3.84961 11.4 3.53621 11.4 3.14961C11.4 2.76301 11.1314 2.44961 10.8 2.44961H7.2ZM1.8 4.54961H10.2V11.5496C10.2 12.3228 9.66274 12.9496 9 12.9496H3C2.33726 12.9496 1.8 12.3228 1.8 11.5496V4.54961ZM4.2 6.29961C4.2 6.10631 4.33431 5.94961 4.5 5.94961C4.66569 5.94961 4.8 6.10631 4.8 6.29961V11.1996C4.8 11.3929 4.66569 11.5496 4.5 11.5496C4.33431 11.5496 4.2 11.3929 4.2 11.1996V6.29961ZM7.5 5.94961C7.33431 5.94961 7.2 6.10631 7.2 6.29961V11.1996C7.2 11.3929 7.33431 11.5496 7.5 11.5496C7.66569 11.5496 7.8 11.3929 7.8 11.1996V6.29961C7.8 6.10631 7.66569 5.94961 7.5 5.94961Z" fill="#5A5A5A"/>
</svg>
