<svg width="20" height="20" viewBox="0 0 20 20" fill="none" xmlns="http://www.w3.org/2000/svg">
<circle cx="10" cy="10" r="4.5" fill="#5A5A5A"/>
<rect width="1" height="3" rx="0.5" transform="matrix(-1 0 0 1 10.5 1.5)" fill="#5A5A5A"/>
<rect width="1" height="3" rx="0.5" transform="matrix(-1 0 0 1 10.5 15.5)" fill="#5A5A5A"/>
<rect width="1" height="3" rx="0.5" transform="matrix(1.19249e-08 -1 -1 -1.19249e-08 4.5 10.5)" fill="#5A5A5A"/>
<rect width="1" height="3" rx="0.5" transform="matrix(1.19249e-08 -1 -1 -1.19249e-08 18.5 10.5)" fill="#5A5A5A"/>
<rect width="1" height="3" rx="0.5" transform="matrix(-0.707107 -0.707107 -0.707107 0.707107 16.3284 4.20709)" fill="#5A5A5A"/>
<rect width="1" height="3" rx="0.5" transform="matrix(-0.707107 -0.707107 -0.707107 0.707107 6.32837 14.2071)" fill="#5A5A5A"/>
<rect width="1" height="3" rx="0.5" transform="matrix(-0.707107 0.707107 0.707107 0.707107 14.207 13.5)" fill="#5A5A5A"/>
<rect width="1" height="3" rx="0.5" transform="matrix(-0.707107 0.707107 0.707107 0.707107 4.20703 3.5)" fill="#5A5A5A"/>
</svg>
