<svg width="24" height="24" viewBox="0 0 24 24" fill="none" xmlns="http://www.w3.org/2000/svg">
<path fill-rule="evenodd" clip-rule="evenodd" d="M3 3.5C3 3.22386 3.22386 3 3.5 3H7V2H3.5C2.67157 2 2 2.67157 2 3.5V7H3V3.5ZM17 3H20.5C20.7761 3 21 3.22386 21 3.5V7H22V3.5C22 2.67157 21.3284 2 20.5 2H17V3ZM2 17V20.5C2 21.3284 2.67157 22 3.5 22H7V21H3.5C3.22386 21 3 20.7761 3 20.5V17H2ZM21 17V20.5C21 20.7761 20.7761 21 20.5 21H17V22H20.5C21.3284 22 22 21.3284 22 20.5V17H21ZM5 6H19V10L5 10V6ZM5 11V18H19V11L5 11ZM4 6C4 5.44772 4.44772 5 5 5H19C19.5523 5 20 5.44772 20 6V18C20 18.5523 19.5523 19 19 19H5C4.44772 19 4 18.5523 4 18V6ZM8 8C8 8.55228 7.55228 9 7 9C6.44772 9 6 8.55228 6 8C6 7.44772 6.44772 7 7 7C7.55228 7 8 7.44772 8 8ZM10 9C10.5523 9 11 8.55228 11 8C11 7.44772 10.5523 7 10 7C9.44772 7 9 7.44772 9 8C9 8.55228 9.44772 9 10 9ZM14 8C14 8.55228 13.5523 9 13 9C12.4477 9 12 8.55228 12 8C12 7.44772 12.4477 7 13 7C13.5523 7 14 7.44772 14 8Z" fill="#303030"/>
</svg>
