<svg width="20" height="20" viewBox="0 0 20 20" fill="none" xmlns="http://www.w3.org/2000/svg">
<path fill-rule="evenodd" clip-rule="evenodd" d="M10 17C13.866 17 17 13.866 17 10C17 6.13401 13.866 3 10 3C6.13401 3 3 6.13401 3 10C3 13.866 6.13401 17 10 17ZM7.61905 15.7486C8.37396 16.0613 9.18308 16.2222 10.0002 16.2222V10L10.0002 3.77777C9.18308 3.77777 8.37396 3.93872 7.61905 4.25141C6.86413 4.56411 6.1782 5.02243 5.60042 5.60022C5.02263 6.17801 4.5643 6.86394 4.25161 7.61885C3.93891 8.37377 3.77797 9.18288 3.77797 10C3.77797 10.8171 3.93891 11.6262 4.25161 12.3811C4.5643 13.1361 5.02263 13.822 5.60041 14.3998C6.1782 14.9776 6.86413 15.4359 7.61905 15.7486Z" fill="#5A5A5A"/>
</svg>
