<svg width="21" height="19" viewBox="0 0 21 19" fill="none" xmlns="http://www.w3.org/2000/svg">
<path fill-rule="evenodd" clip-rule="evenodd" d="M17.9688 1.79688H3.59375C2.60136 1.79688 1.79688 2.60136 1.79688 3.59375V16.1719C1.79688 17.1643 2.60136 17.9688 3.59375 17.9688H17.9688C18.9611 17.9688 19.7656 17.1643 19.7656 16.1719V3.59375C19.7656 2.60136 18.9611 1.79688 17.9688 1.79688ZM3.59375 0.898438C2.10517 0.898438 0.898438 2.10517 0.898438 3.59375V16.1719C0.898438 17.6605 2.10517 18.8672 3.59375 18.8672H17.9688C19.4573 18.8672 20.6641 17.6605 20.6641 16.1719V3.59375C20.6641 2.10517 19.4573 0.898438 17.9688 0.898438H3.59375ZM8.98438 4.49219H5.39062V8.08594H8.98438V4.49219ZM5.39062 3.59375C4.89443 3.59375 4.49219 3.99599 4.49219 4.49219V8.08594C4.49219 8.58213 4.89443 8.98438 5.39062 8.98438H8.98438C9.48057 8.98438 9.88281 8.58213 9.88281 8.08594V4.49219C9.88281 3.99599 9.48057 3.59375 8.98438 3.59375H5.39062ZM5.39062 11.6797H8.98438V15.2734H5.39062V11.6797ZM4.49219 11.6797C4.49219 11.1835 4.89443 10.7812 5.39062 10.7812H8.98438C9.48057 10.7812 9.88281 11.1835 9.88281 11.6797V15.2734C9.88281 15.7696 9.48057 16.1719 8.98438 16.1719H5.39062C4.89443 16.1719 4.49219 15.7696 4.49219 15.2734V11.6797ZM16.1719 4.49219H12.5781V8.08594H16.1719V4.49219ZM12.5781 3.59375C12.0819 3.59375 11.6797 3.99599 11.6797 4.49219V8.08594C11.6797 8.58213 12.0819 8.98438 12.5781 8.98438H16.1719C16.6681 8.98438 17.0703 8.58213 17.0703 8.08594V4.49219C17.0703 3.99599 16.6681 3.59375 16.1719 3.59375H12.5781ZM12.5781 11.6797H16.1719V15.2734H12.5781V11.6797ZM11.6797 11.6797C11.6797 11.1835 12.0819 10.7812 12.5781 10.7812H16.1719C16.6681 10.7812 17.0703 11.1835 17.0703 11.6797V15.2734C17.0703 15.7696 16.6681 16.1719 16.1719 16.1719H12.5781C12.0819 16.1719 11.6797 15.7696 11.6797 15.2734V11.6797Z" fill="#303030"/>
</svg>
