<svg width="20" height="20" viewBox="0 0 20 20" fill="none" xmlns="http://www.w3.org/2000/svg">
<path fill-rule="evenodd" clip-rule="evenodd" d="M1 1.5C1 1.22386 1.22386 1 1.5 1H12.5C12.7761 1 13 1.22386 13 1.5V6H14V1C14 0.447715 13.5523 0 13 0H1C0.447715 0 0 0.447716 0 1V13C0 13.5523 0.447716 14 1 14H6V13H1.5C1.22386 13 1 12.7761 1 12.5V1.5Z" fill="#101828"/>
<path fill-rule="evenodd" clip-rule="evenodd" d="M7 6C6.44772 6 6 6.44772 6 7V19C6 19.5523 6.44772 20 7 20H19C19.5523 20 20 19.5523 20 19V7C20 6.44772 19.5523 6 19 6H7ZM12 9.5C12 9.22386 12.2239 9 12.5 9H13.5C13.7761 9 14 9.22386 14 9.5V12H16.5C16.7761 12 17 12.2239 17 12.5V13.5C17 13.7761 16.7761 14 16.5 14H14V16.5C14 16.7761 13.7761 17 13.5 17H12.5C12.2239 17 12 16.7761 12 16.5V14H9.5C9.22386 14 9 13.7761 9 13.5V12.5C9 12.2239 9.22386 12 9.5 12H12V9.5Z" fill="#101828"/>
</svg>
