<svg width="20" height="21" viewBox="0 0 20 21" fill="none" xmlns="http://www.w3.org/2000/svg">
<g clip-path="url(#clip0_5704_448)">
<path fill-rule="evenodd" clip-rule="evenodd" d="M0.75 10.5C0.75 15.6086 4.89137 19.75 10 19.75C15.1086 19.75 19.25 15.6086 19.25 10.5C19.25 5.39136 15.1086 1.25 10 1.25C4.89137 1.25 0.749999 5.39136 0.75 10.5ZM10 20.25C4.61522 20.25 0.25 15.8848 0.25 10.5C0.249999 5.11522 4.61522 0.749998 10 0.749998C15.3848 0.749997 19.75 5.11522 19.75 10.5C19.75 15.8848 15.3848 20.25 10 20.25Z" fill="#101828"/>
<path d="M6.19879 12.3358C6.1971 12.3379 6.19627 12.3398 6.19493 12.3413C6.18923 12.3467 6.18365 12.3516 6.17845 12.3572C6.13169 12.3773 6.09257 12.4159 6.07318 12.4678L5.17963 14.8709C5.15298 14.9429 5.17006 15.0238 5.22372 15.0777L5.24409 15.0985L5.01414 15.3344C4.92306 15.4277 4.92376 15.5786 5.01573 15.6712C5.10755 15.7632 5.25582 15.7632 5.34706 15.6699L5.57624 15.4346L5.59636 15.4547L5.59649 15.4555C5.65027 15.5094 5.7301 15.5265 5.80049 15.4983L8.1469 14.579C8.18082 14.5652 8.20845 14.5423 8.22928 14.5152C8.25981 14.5028 8.28803 14.4828 8.30961 14.4544C8.31736 14.4442 9.08432 13.4356 9.35386 13.1457C10.7624 11.6308 15.0531 7.20286 15.0958 7.1589C15.27 6.97994 15.2304 6.71453 15.0856 6.43913C15.3309 6.2156 15.4387 5.93356 15.3832 5.644C15.353 5.48573 15.2743 5.34262 15.1648 5.23178C15.0586 5.12524 14.924 5.04851 14.775 5.01673C14.4827 4.95441 14.1945 5.06785 13.9655 5.32883C13.606 5.14926 13.4032 5.23412 13.2966 5.33905C12.5966 6.02505 11.4762 7.17674 10.3921 8.29063C9.32211 9.39045 8.2156 10.5275 7.4823 11.2503C7.25602 11.4731 6.58039 12.0265 6.31378 12.243C6.26603 12.2706 6.22812 12.3031 6.19879 12.3358ZM5.80377 15.0797C5.79867 15.0257 5.776 14.974 5.73542 14.9331C5.69522 14.8924 5.64434 14.8694 5.59177 14.8645L6.41261 12.6573C6.42268 12.6518 6.43237 12.6455 6.44158 12.638C6.44764 12.6331 6.47439 12.6116 6.51571 12.5779C6.562 12.5626 6.62814 12.5737 6.66933 12.5841C7.14383 12.7032 7.90595 13.4542 8.02843 13.9247C8.06841 14.0781 8.02152 14.1232 8.00602 14.1383C7.97717 14.1661 7.95877 14.2006 7.9509 14.238L5.80377 15.0797ZM14.6964 5.39841C14.8494 5.43093 14.9769 5.56259 15.0066 5.71827C15.0329 5.85424 14.9846 5.98947 14.8696 6.11053C14.7991 6.02051 14.7222 5.93281 14.6424 5.8503C14.6328 5.84107 14.6239 5.8317 14.6147 5.82247C14.5108 5.71765 14.4031 5.62232 14.2964 5.54054C14.4213 5.41898 14.5594 5.36885 14.6964 5.39841ZM10.6645 8.56492C11.747 7.45262 12.8663 6.30255 13.5626 5.61961C13.6004 5.58242 13.9272 5.66703 14.3691 6.12383C14.4964 6.25512 14.5916 6.37473 14.6614 6.4783C14.6646 6.48618 14.6689 6.49418 14.6736 6.50157C14.6776 6.50773 14.6826 6.51278 14.6873 6.51846C14.8193 6.72622 14.845 6.8622 14.8233 6.88436C14.7858 6.92302 10.4981 11.3471 9.07523 12.8772C8.91823 13.046 8.6161 13.4272 8.3726 13.7399C8.27508 13.459 8.0495 13.1415 7.77693 12.8662C7.50825 12.5957 7.19411 12.3667 6.91089 12.2547C7.21569 12.003 7.5854 11.6917 7.74955 11.5297C8.48527 10.8041 9.59312 9.66585 10.6645 8.56492Z" fill="#101828"/>
<path d="M8.62455 11.1933L7.81312 11.903C7.78163 11.9307 7.76297 11.9701 7.76154 12.0131C7.75995 12.0553 7.77595 12.0961 7.8055 12.1258L8.43956 12.7649C8.46924 12.7947 8.50959 12.8106 8.55114 12.8085C8.59268 12.8064 8.6317 12.787 8.65835 12.7552L9.34861 11.923L11.0508 10.3021C11.0803 10.2738 11.0974 10.2346 11.0978 10.1935C11.0985 10.1522 11.0824 10.1126 11.0536 10.0837L10.4199 9.44479L10.4192 9.44429C10.3608 9.38505 10.2664 9.38556 10.2082 9.44517C10.2032 9.45045 10.1988 9.45587 10.1943 9.46165L8.62455 11.1933ZM8.12991 12.0261L8.6907 11.535L9.01173 11.8588L8.53466 12.4336L8.12991 12.0261ZM10.7341 10.1884L9.21414 11.636L8.90838 11.3275L10.3196 9.77057L10.7341 10.1884Z" fill="#101828"/>
</g>
<defs>
<clipPath id="clip0_5704_448">
<rect width="20" height="20" fill="white" transform="translate(0 0.5)"/>
</clipPath>
</defs>
</svg>
