<svg width="20" height="20" viewBox="0 0 20 20" fill="none" xmlns="http://www.w3.org/2000/svg">
<path fill-rule="evenodd" clip-rule="evenodd" d="M0.75 10C0.75 15.1086 4.89137 19.25 10 19.25C15.1086 19.25 19.25 15.1086 19.25 10C19.25 4.89136 15.1086 0.749997 10 0.749998C4.89137 0.749998 0.749999 4.89136 0.75 10ZM10 19.75C4.61522 19.75 0.25 15.3848 0.25 10C0.249999 4.61522 4.61522 0.249998 10 0.249998C15.3848 0.249997 19.75 4.61522 19.75 10C19.75 15.3848 15.3848 19.75 10 19.75Z" fill="#101828"/>
<path d="M6.19879 11.8358C6.1971 11.8379 6.19627 11.8398 6.19493 11.8413C6.18923 11.8467 6.18365 11.8516 6.17845 11.8572C6.13169 11.8773 6.09257 11.9159 6.07318 11.9678L5.17963 14.3709C5.15298 14.4429 5.17006 14.5238 5.22372 14.5777L5.24409 14.5985L5.01414 14.8344C4.92306 14.9277 4.92376 15.0786 5.01573 15.1712C5.10755 15.2632 5.25582 15.2632 5.34706 15.1699L5.57624 14.9346L5.59636 14.9547L5.59649 14.9555C5.65027 15.0094 5.7301 15.0265 5.80049 14.9983L8.1469 14.079C8.18082 14.0652 8.20845 14.0423 8.22928 14.0152C8.25981 14.0028 8.28803 13.9828 8.30961 13.9544C8.31736 13.9442 9.08432 12.9356 9.35386 12.6457C10.7624 11.1308 15.0531 6.70286 15.0958 6.6589C15.27 6.47994 15.2304 6.21453 15.0856 5.93913C15.3309 5.7156 15.4387 5.43356 15.3832 5.144C15.353 4.98573 15.2743 4.84262 15.1648 4.73178C15.0586 4.62524 14.924 4.54851 14.775 4.51673C14.4827 4.45441 14.1945 4.56785 13.9655 4.82883C13.606 4.64926 13.4032 4.73412 13.2966 4.83905C12.5966 5.52505 11.4762 6.67674 10.3921 7.79063C9.32211 8.89045 8.2156 10.0275 7.4823 10.7503C7.25602 10.9731 6.58039 11.5265 6.31378 11.743C6.26603 11.7706 6.22812 11.8031 6.19879 11.8358ZM5.80377 14.5797C5.79867 14.5257 5.776 14.474 5.73542 14.4331C5.69522 14.3924 5.64434 14.3694 5.59177 14.3645L6.41261 12.1573C6.42268 12.1518 6.43237 12.1455 6.44158 12.138C6.44764 12.1331 6.47439 12.1116 6.51571 12.0779C6.562 12.0626 6.62814 12.0737 6.66933 12.0841C7.14383 12.2032 7.90595 12.9542 8.02843 13.4247C8.06841 13.5781 8.02152 13.6232 8.00602 13.6383C7.97717 13.6661 7.95877 13.7006 7.9509 13.738L5.80377 14.5797ZM14.6964 4.89841C14.8494 4.93093 14.9769 5.06259 15.0066 5.21827C15.0329 5.35424 14.9846 5.48947 14.8696 5.61053C14.7991 5.52051 14.7222 5.43281 14.6424 5.3503C14.6328 5.34107 14.6239 5.3317 14.6147 5.32247C14.5108 5.21765 14.4031 5.12232 14.2964 5.04054C14.4213 4.91898 14.5594 4.86885 14.6964 4.89841ZM10.6645 8.06492C11.747 6.95262 12.8663 5.80255 13.5626 5.11961C13.6004 5.08242 13.9272 5.16703 14.3691 5.62383C14.4964 5.75512 14.5916 5.87473 14.6614 5.9783C14.6646 5.98618 14.6689 5.99418 14.6736 6.00157C14.6776 6.00773 14.6826 6.01278 14.6873 6.01846C14.8193 6.22622 14.845 6.3622 14.8233 6.38436C14.7858 6.42302 10.4981 10.8471 9.07523 12.3772C8.91823 12.546 8.6161 12.9272 8.3726 13.2399C8.27508 12.959 8.0495 12.6415 7.77693 12.3662C7.50825 12.0957 7.19411 11.8667 6.91089 11.7547C7.21569 11.503 7.5854 11.1917 7.74955 11.0297C8.48527 10.3041 9.59312 9.16585 10.6645 8.06492Z" fill="#101828"/>
<path d="M8.62455 10.6933L7.81312 11.403C7.78163 11.4307 7.76297 11.4701 7.76154 11.5131C7.75995 11.5553 7.77595 11.5961 7.8055 11.6258L8.43956 12.2649C8.46924 12.2947 8.50959 12.3106 8.55114 12.3085C8.59268 12.3064 8.6317 12.287 8.65835 12.2552L9.34861 11.423L11.0508 9.80213C11.0803 9.77379 11.0974 9.73462 11.0978 9.69348C11.0985 9.65224 11.0824 9.61257 11.0536 9.58375L10.4199 8.94479L10.4192 8.94429C10.3608 8.88505 10.2664 8.88556 10.2082 8.94517C10.2032 8.95045 10.1988 8.95587 10.1943 8.96165L8.62455 10.6933ZM8.12991 11.5261L8.6907 11.035L9.01173 11.3588L8.53466 11.9336L8.12991 11.5261ZM10.7341 9.68843L9.21414 11.136L8.90838 10.8275L10.3196 9.27057L10.7341 9.68843Z" fill="#101828"/>
</svg>
