<svg width="16" height="16" viewBox="0 0 16 16" fill="none" xmlns="http://www.w3.org/2000/svg">
<path d="M8.18236 9.45759C11.1826 9.45759 13.4556 8.35268 14.6678 6.43415L11.6675 5.06808C10.9907 6.1529 9.78857 6.75558 8.29349 6.75558C6.2529 6.75558 4.92955 5.78125 4.78813 4.21429H14.9203V3.29018C14.9203 2.44643 14.7991 1.68304 14.5567 1H10.7786C10.8998 1.29129 10.9705 1.62277 10.9705 1.99442V2.06473H4.76792C4.79823 1.67299 4.88914 1.31138 5.03057 1H2V6.9163C3.18192 8.55357 5.33363 9.45759 8.18236 9.45759Z" fill="white"/>
<path d="M8.00053 10.7822C5.27302 10.7822 3.17182 11.7264 2 13.4139V15.0813H4.85884C5.1821 13.8056 6.28321 13.0523 7.95002 13.0523C9.58653 13.0523 10.7078 13.8056 10.9301 15.0813H14.7082C14.0213 12.3491 11.6675 10.7822 8.00053 10.7822Z" fill="white"/>
</svg>
