<svg width="20" height="20" viewBox="0 0 20 20" fill="none" xmlns="http://www.w3.org/2000/svg">
<path fill-rule="evenodd" clip-rule="evenodd" d="M1.25 7.11L0 14C0 14.7956 0.31607 15.5587 0.87868 16.1213C1.44129 16.6839 2.20435 17 3 17C3.79565 17 4.55871 16.6839 5.12132 16.1213C5.68393 15.5587 6 14.7956 6 14C6 13.7348 6.10536 13.4804 6.29289 13.2929C6.48043 13.1054 6.73478 13 7 13H13C13.2652 13 13.5196 13.1054 13.7071 13.2929C13.8946 13.4804 14 13.7348 14 14C14 14.7956 14.3161 15.5587 14.8787 16.1213C15.4413 16.6839 16.2044 17 17 17C17.7956 17 18.5587 16.6839 19.1213 16.1213C19.6839 15.5587 20 14.7956 20 14L18.74 7.1C18.5297 5.95055 17.9234 4.91107 17.0264 4.16209C16.1295 3.41311 14.9985 3.00195 13.83 3H6.17C4.99831 3.00004 3.86385 3.41156 2.96463 4.16273C2.06541 4.91391 1.45856 5.95702 1.25 7.11ZM6.17 4C6.16999 4 6.17001 4 6.17 4C5.23266 4.00004 4.3251 4.32925 3.60573 4.93019C2.88636 5.53113 2.40088 6.36562 2.23403 7.288L1.00164 14.081C1.02191 14.582 1.22984 15.0583 1.58579 15.4142C1.96086 15.7893 2.46957 16 3 16C3.53043 16 4.03914 15.7893 4.41421 15.4142C4.78929 15.0391 5 14.5304 5 14C5 13.4696 5.21071 12.9609 5.58579 12.5858C5.96086 12.2107 6.46957 12 7 12H13C13.5304 12 14.0391 12.2107 14.4142 12.5858C14.7893 12.9609 15 13.4696 15 14C15 14.5304 15.2107 15.0391 15.5858 15.4142C15.9609 15.7893 16.4696 16 17 16C17.5304 16 18.0391 15.7893 18.4142 15.4142C18.77 15.0584 18.9779 14.5823 18.9983 14.0815L17.7563 7.28C17.5881 6.36044 17.103 5.52885 16.3855 4.92967C15.6681 4.33066 14.7637 4.00174 13.8291 4H6.17Z" fill="#5A5A5A"/>
<circle cx="14.25" cy="6.75" r="0.75" fill="#5A5A5A"/>
<circle cx="12.75" cy="8.25" r="0.75" fill="#5A5A5A"/>
<circle cx="14.25" cy="9.75" r="0.75" fill="#5A5A5A"/>
<circle cx="15.75" cy="8.25" r="0.75" fill="#5A5A5A"/>
<path fill-rule="evenodd" clip-rule="evenodd" d="M6.5 6C6.08579 6 5.75 6.33579 5.75 6.75V7.75H4.75C4.33579 7.75 4 8.08579 4 8.5C4 8.91421 4.33579 9.25 4.75 9.25H5.75V10.25C5.75 10.6642 6.08579 11 6.5 11C6.91421 11 7.25 10.6642 7.25 10.25V9.25H8.25C8.66421 9.25 9 8.91421 9 8.5C9 8.08579 8.66421 7.75 8.25 7.75H7.25V6.75C7.25 6.33579 6.91421 6 6.5 6Z" fill="#5A5A5A"/>
</svg>
