<svg width="20" height="26" viewBox="0 0 20 26" fill="none" xmlns="http://www.w3.org/2000/svg">
<g filter="url(#filter0_d_4891_11909)">
<path d="M17.0274 14.4819C17.0274 13.5093 16.2735 12.7219 15.3423 12.7219C14.9875 12.7219 14.655 12.8377 14.3889 13.0462C14.145 12.3977 13.5242 11.9346 12.8147 11.9346C12.4599 11.9346 12.1273 12.0504 11.8612 12.2588C11.6173 11.6104 10.9965 11.1472 10.287 11.1472C9.9766 11.1472 9.68836 11.2398 9.44446 11.3788V7.34935C9.44446 6.88619 9.26708 6.44619 8.95667 6.09883C8.62409 5.75146 8.20281 5.58936 7.75937 5.58936C6.82813 5.58936 6.07427 6.37672 6.07427 7.34935V16.404L4.89914 15.1767C4.32266 14.5746 3.41359 14.4819 2.74842 14.9682C2.34932 15.2461 2.08325 15.6861 2.01673 16.1956C1.95022 16.6819 2.08325 17.1914 2.39366 17.5851L5.85255 21.9387C6.89465 23.2587 8.42453 23.9998 10.0653 23.9998H12.216C13.502 23.9998 14.7215 23.4671 15.6305 22.5177C16.5396 21.5682 17.0496 20.2945 17.0496 18.9514L17.0274 14.4819ZM15.0319 21.8924C14.278 22.6798 13.2803 23.1198 12.216 23.1198H10.0653C8.6906 23.1198 7.38244 22.4714 6.51772 21.3598L3.03666 17.0061C2.88145 16.7977 2.81494 16.5661 2.83711 16.3114C2.88145 16.0567 3.01449 15.8251 3.21404 15.6861C3.36925 15.5935 3.52445 15.524 3.70183 15.524C3.92355 15.524 4.14528 15.6167 4.30048 15.7788L5.69734 17.2146C5.89689 17.423 6.2073 17.4924 6.47337 17.3767C6.73944 17.2609 6.91682 16.983 6.91682 16.6819V7.34935C6.91682 6.86303 7.29375 6.46935 7.75937 6.46935C7.98109 6.46935 8.20281 6.56198 8.35802 6.72409C8.51322 6.88619 8.60191 7.11777 8.60191 7.34935V13.7872C8.60191 14.0188 8.77929 14.2272 9.02319 14.2272C9.26708 14.2272 9.44446 14.0419 9.44446 13.7872V12.9072C9.44446 12.4209 9.82139 12.0272 10.287 12.0272C10.7526 12.0272 11.1296 12.4209 11.1296 12.9072V14.5746C11.1296 14.8061 11.3069 15.0146 11.5508 15.0146C11.7947 15.0146 11.9721 14.8293 11.9721 14.5746V13.6946C11.9721 13.2083 12.349 12.8146 12.8147 12.8146C13.2803 12.8146 13.6572 13.2083 13.6572 13.6946V15.3619C13.6572 15.5935 13.8346 15.8019 14.0785 15.8019C14.3224 15.8019 14.4998 15.6167 14.4998 15.3619V14.5283C14.4998 14.5051 14.4998 14.4819 14.4998 14.4819C14.4998 13.9956 14.8767 13.6019 15.3423 13.6019C15.8079 13.6019 16.1848 13.9956 16.1848 14.4819V18.9514C16.1848 20.063 15.7857 21.1051 15.0319 21.8924Z" fill="#DCDCDC"/>
<path d="M7.75916 4.63998C7.98089 4.63998 8.18044 4.45472 8.18044 4.19999V2.44C8.18044 2.20842 8.00306 2 7.75916 2C7.51527 2 7.33789 2.18526 7.33789 2.44V4.19999C7.33789 4.45472 7.51527 4.63998 7.75916 4.63998Z" fill="#DCDCDC"/>
<path d="M5.34174 5.42705C5.43043 5.51968 5.54129 5.56599 5.62998 5.56599C5.71867 5.56599 5.8517 5.51968 5.91822 5.42705C6.07343 5.26494 6.07343 4.98705 5.91822 4.80179L4.72092 3.55127C4.56571 3.38916 4.29964 3.38916 4.12226 3.55127C3.96706 3.71337 3.96706 3.99126 4.12226 4.17653L5.34174 5.42705Z" fill="#DCDCDC"/>
<path d="M9.88678 5.56599C9.99764 5.56599 10.1085 5.51968 10.175 5.42705L11.3723 4.17653C11.5275 4.01442 11.5275 3.73653 11.3723 3.55127C11.2171 3.38916 10.9511 3.38916 10.7737 3.55127L9.57637 4.80179C9.42116 4.96389 9.42116 5.24178 9.57637 5.42705C9.66506 5.51968 9.77592 5.56599 9.88678 5.56599Z" fill="#DCDCDC"/>
</g>
<defs>
<filter id="filter0_d_4891_11909" x="0" y="0" width="20" height="26" filterUnits="userSpaceOnUse" color-interpolation-filters="sRGB">
<feFlood flood-opacity="0" result="BackgroundImageFix"/>
<feColorMatrix in="SourceAlpha" type="matrix" values="0 0 0 0 0 0 0 0 0 0 0 0 0 0 0 0 0 0 127 0" result="hardAlpha"/>
<feOffset/>
<feGaussianBlur stdDeviation="1"/>
<feComposite in2="hardAlpha" operator="out"/>
<feColorMatrix type="matrix" values="0 0 0 0 0 0 0 0 0 0 0 0 0 0 0 0 0 0 0.15 0"/>
<feBlend mode="normal" in2="BackgroundImageFix" result="effect1_dropShadow_4891_11909"/>
<feBlend mode="normal" in="SourceGraphic" in2="effect1_dropShadow_4891_11909" result="shape"/>
</filter>
</defs>
</svg>
