<svg width="21" height="20" viewBox="0 0 21 20" fill="none" xmlns="http://www.w3.org/2000/svg">
<path fill-rule="evenodd" clip-rule="evenodd" d="M12.0402 1.19189C11.6956 1.19189 11.4162 1.47128 11.4162 1.81591V2.37848V8.26634C11.4162 8.54248 11.1923 8.76634 10.9162 8.76634C10.6401 8.76634 10.4162 8.54248 10.4162 8.26634V2.37848C10.4162 1.96557 10.0307 1.58154 9.56255 1.58154C9.12241 1.58154 8.76561 1.93834 8.76561 2.37848L8.76553 10.5217C8.76553 11.4963 7.55741 11.9503 6.91559 11.2168L4.82284 8.82504C4.51122 8.46891 3.96335 8.45067 3.62873 8.78528L3.27518 8.43173L3.62873 8.78528C3.34732 9.06669 3.30926 9.50979 3.53855 9.83507L3.54617 9.84588L3.55321 9.85707L8.22097 17.2834C8.89007 18.2255 9.97417 18.7855 11.1302 18.7855H13.3314C14.1651 18.7855 15.1181 18.4423 15.8605 17.8737C16.6059 17.3027 17.0624 16.5677 17.0624 15.8205V5.45134C17.0624 5.2022 16.8605 5.00024 16.6114 5.00024C16.3491 5.00024 16.1419 5.18624 16.0852 5.36044V9.34216C16.0852 9.6183 15.8613 9.84216 15.5852 9.84216C15.3091 9.84216 15.0852 9.6183 15.0852 9.34216V5.45134H15.0698C15.0698 5.38154 15.0751 5.3135 15.0852 5.24739V3.21072C15.0852 2.81834 14.7671 2.50024 14.3747 2.50024C13.9823 2.50024 13.6642 2.81834 13.6642 3.21072V8.73699C13.6642 9.01313 13.4404 9.23699 13.1642 9.23699C12.8881 9.23699 12.6642 9.01313 12.6642 8.73699V3.21072V1.81591C12.6642 1.47128 12.3849 1.19189 12.0402 1.19189ZM13.6566 1.65782C13.5772 0.835087 12.8838 0.191895 12.0402 0.191895C11.4631 0.191895 10.9564 0.492886 10.6683 0.946443C10.3518 0.716002 9.96366 0.581537 9.56255 0.581537C8.57013 0.581537 7.76561 1.38606 7.76561 2.37848L7.76553 10.5217C7.76553 10.5426 7.76027 10.5503 7.75767 10.5539C7.75317 10.56 7.74399 10.5682 7.72951 10.5737C7.71504 10.5791 7.70272 10.579 7.6953 10.5773C7.69101 10.5764 7.68195 10.574 7.66817 10.5583L5.57542 8.16654C4.88288 7.37507 3.66527 7.33452 2.92162 8.07818C2.29958 8.70022 2.21255 9.67773 2.71303 10.3995L7.38159 17.8272L7.38862 17.8384L7.39624 17.8492C8.25207 19.0633 9.64476 19.7855 11.1302 19.7855H13.3314C14.4112 19.7855 15.5737 19.353 16.4686 18.6675C17.3603 17.9845 18.0624 16.987 18.0624 15.8205V5.45134C18.0624 4.64992 17.4128 4.00024 16.6114 4.00024C16.4354 4.00024 16.2562 4.03364 16.0852 4.09603V3.21072C16.0852 2.26605 15.3194 1.50024 14.3747 1.50024C14.1183 1.50024 13.875 1.55668 13.6566 1.65782Z" fill="#101828"/>
</svg>
