<svg width="25" height="25" viewBox="0 0 25 25" fill="none" xmlns="http://www.w3.org/2000/svg">
<path d="M24 12.5C24 18.8513 18.8513 24 12.5 24C6.14872 24 0.999997 18.8513 0.999998 12.5C0.999999 6.14872 6.14872 1 12.5 1C18.8513 1 24 6.14873 24 12.5Z" stroke="#303030" stroke-opacity="0.66" stroke-width="2"/>
<path d="M11.7451 14.3953C11.7451 14.0408 11.8269 13.718 11.9906 13.4271C12.1542 13.1362 12.4315 12.8726 12.8224 12.6362L13.736 12.0908C14.0815 11.8817 14.3451 11.6544 14.5269 11.4089C14.7088 11.1635 14.7997 10.8498 14.7997 10.468C14.7997 10.0408 14.6269 9.69075 14.2815 9.41803C13.936 9.1453 13.4497 9.00893 12.8224 9.00893C12.1497 9.00893 11.6133 9.16348 11.2133 9.47257C10.8224 9.78166 10.6269 10.2135 10.6269 10.768C10.6269 11.0317 10.6588 11.268 10.7224 11.4771L8.93603 11.3135C8.87239 11.0498 8.84058 10.8044 8.84058 10.5771C8.84058 9.9953 8.99967 9.48621 9.31785 9.04984C9.63603 8.61348 10.0951 8.27257 10.6951 8.02712C11.2951 7.78166 12.0088 7.65894 12.836 7.65894C14.0269 7.65894 14.9542 7.89984 15.6178 8.38166C16.2906 8.86348 16.6269 9.52257 16.6269 10.3589C16.6269 10.9135 16.486 11.3908 16.2042 11.7908C15.9224 12.1817 15.536 12.5317 15.0451 12.8408L14.1724 13.3726C13.9088 13.5362 13.7224 13.7089 13.6133 13.8908C13.5133 14.0635 13.4633 14.2908 13.4633 14.5726V14.968H11.7451V14.3953ZM13.6406 17.6135H11.5951V15.8408H13.6406V17.6135Z" fill="#303030" fill-opacity="0.66"/>
</svg>
