<svg width="12" height="12" viewBox="0 0 12 12" fill="none" xmlns="http://www.w3.org/2000/svg">
<path d="M5.63759 6.90972C5.63759 6.73954 5.67686 6.58463 5.75541 6.445C5.83395 6.30536 5.96704 6.17881 6.15468 6.06536L6.59323 5.80354C6.75904 5.70318 6.88559 5.59409 6.97286 5.47627C7.06013 5.35845 7.10377 5.20791 7.10377 5.02463C7.10377 4.81954 7.02086 4.65154 6.85504 4.52063C6.68923 4.38972 6.45577 4.32427 6.15468 4.32427C5.83177 4.32427 5.57432 4.39845 5.38232 4.54681C5.19468 4.69518 5.10086 4.90245 5.10086 5.16863C5.10086 5.29518 5.11614 5.40863 5.14668 5.509L4.28923 5.43045C4.25868 5.30391 4.24341 5.18609 4.24341 5.077C4.24341 4.79772 4.31977 4.55336 4.4725 4.34391C4.62523 4.13445 4.84559 3.97081 5.13359 3.853C5.42159 3.73518 5.76414 3.67627 6.16123 3.67627C6.73286 3.67627 7.17795 3.79191 7.4965 4.02318C7.81941 4.25445 7.98086 4.57082 7.98086 4.97227C7.98086 5.23845 7.91323 5.46754 7.77795 5.65954C7.64268 5.84718 7.45723 6.01518 7.22159 6.16354L6.80268 6.41881C6.67613 6.49736 6.58668 6.58027 6.53432 6.66754C6.48632 6.75045 6.46232 6.85954 6.46232 6.99481V7.18463H5.63759V6.90972ZM6.54741 8.45445H5.56559V7.60354H6.54741V8.45445Z" fill="#F0F0F0"/>
<path d="M11.5 6C11.5 9.03757 9.03756 11.5 6 11.5C2.96243 11.5 0.499998 9.03757 0.499999 6C0.499999 2.96243 2.96243 0.500001 6 0.500001C9.03756 0.500002 11.5 2.96244 11.5 6Z" stroke="#F0F0F0"/>
</svg>
