<svg width="25" height="25" viewBox="0 0 25 25" fill="none" xmlns="http://www.w3.org/2000/svg">
<path d="M24 12.5C24 18.8513 18.8513 24 12.5 24C6.14872 24 0.999997 18.8513 0.999998 12.5C0.999999 6.14872 6.14872 1 12.5 1C18.8513 1 24 6.14873 24 12.5Z" stroke="white" stroke-width="2"/>
<path d="M11.7451 14.3952C11.7451 14.0407 11.8269 13.718 11.9906 13.4271C12.1542 13.1361 12.4315 12.8725 12.8224 12.6361L13.736 12.0907C14.0815 11.8816 14.3451 11.6543 14.5269 11.4089C14.7088 11.1634 14.7997 10.8498 14.7997 10.468C14.7997 10.0407 14.6269 9.69069 14.2815 9.41797C13.936 9.14524 13.4497 9.00887 12.8224 9.00887C12.1497 9.00887 11.6133 9.16342 11.2133 9.47251C10.8224 9.7816 10.6269 10.2134 10.6269 10.768C10.6269 11.0316 10.6588 11.268 10.7224 11.4771L8.93603 11.3134C8.87239 11.0498 8.84058 10.8043 8.84058 10.5771C8.84058 9.99524 8.99967 9.48615 9.31785 9.04978C9.63603 8.61342 10.0951 8.27251 10.6951 8.02706C11.2951 7.7816 12.0088 7.65887 12.836 7.65887C14.0269 7.65887 14.9542 7.89978 15.6178 8.3816C16.2906 8.86342 16.6269 9.52251 16.6269 10.3589C16.6269 10.9134 16.486 11.3907 16.2042 11.7907C15.9224 12.1816 15.536 12.5316 15.0451 12.8407L14.1724 13.3725C13.9088 13.5361 13.7224 13.7089 13.6133 13.8907C13.5133 14.0634 13.4633 14.2907 13.4633 14.5725V14.968H11.7451V14.3952ZM13.6406 17.6134H11.5951V15.8407H13.6406V17.6134Z" fill="white"/>
</svg>
