<svg width="132" height="41" viewBox="0 0 132 41" fill="none" xmlns="http://www.w3.org/2000/svg">
<path d="M67 20.5001L67.0161 19.5002L67 20.5001ZM130.822 37.9473C131.345 37.7694 131.625 37.2013 131.447 36.6785L128.548 28.158C128.37 27.6352 127.802 27.3555 127.279 27.5334C126.756 27.7112 126.477 28.2793 126.655 28.8022L129.231 36.3759L121.657 38.9524C121.135 39.1303 120.855 39.6984 121.033 40.2212C121.211 40.7441 121.779 41.0237 122.302 40.8459L130.822 37.9473ZM2 37C2.44721 37.8944 2.44718 37.8944 2.44727 37.8944C2.44748 37.8943 2.4477 37.8942 2.44811 37.894C2.44892 37.8936 2.45025 37.8929 2.4521 37.892C2.45579 37.8902 2.46153 37.8873 2.46931 37.8834C2.48488 37.8757 2.50859 37.864 2.54032 37.8483C2.60376 37.8171 2.69924 37.7703 2.82562 37.709C3.07839 37.5865 3.45476 37.406 3.94569 37.1761C4.92759 36.7161 6.36755 36.0582 8.19338 35.2696C11.8456 33.6922 17.0387 31.5931 23.1955 29.5098C35.5259 25.3374 51.6503 21.2526 66.9839 21.4999L67.0161 19.5002C51.3497 19.2475 34.9741 23.4127 22.5545 27.6153C16.3363 29.7194 11.0919 31.8391 7.40037 33.4335C5.55432 34.2309 4.09584 34.8972 3.09728 35.3649C2.59798 35.5988 2.2136 35.7831 1.95318 35.9094C1.82298 35.9725 1.72375 36.0211 1.65664 36.0542C1.62309 36.0707 1.59756 36.0833 1.58021 36.0919C1.57153 36.0962 1.56489 36.0995 1.56032 36.1018C1.55803 36.103 1.55626 36.1038 1.555 36.1045C1.55437 36.1048 1.55382 36.1051 1.55351 36.1052C1.55308 36.1054 1.55279 36.1056 2 37ZM66.9839 21.4999C82.3356 21.7476 98.0986 25.8374 110.054 29.885C116.026 31.9066 121.032 33.9125 124.545 35.4123C126.301 36.1621 127.682 36.7851 128.624 37.2199C129.094 37.4372 129.455 37.6075 129.696 37.7231C129.817 37.7808 129.909 37.8249 129.969 37.8543C130 37.8691 130.022 37.8801 130.037 37.8874C130.045 37.891 130.05 37.8937 130.054 37.8954C130.055 37.8963 130.057 37.8969 130.057 37.8973C130.058 37.8975 130.058 37.8976 130.058 37.8977C130.058 37.8977 130.058 37.8977 130.5 37.0005C130.942 36.1034 130.941 36.1032 130.941 36.103C130.941 36.1029 130.94 36.1026 130.94 36.1023C130.938 36.1017 130.937 36.1009 130.934 36.0998C130.93 36.0977 130.924 36.0946 130.915 36.0905C130.899 36.0824 130.874 36.0705 130.842 36.0549C130.778 36.0238 130.683 35.9779 130.558 35.9184C130.309 35.7993 129.941 35.6253 129.462 35.4042C128.505 34.962 127.106 34.3311 125.33 33.573C121.78 32.0571 116.724 30.0317 110.696 27.9906C98.6514 23.913 82.6644 19.7526 67.0161 19.5002L66.9839 21.4999Z" fill="#303030"/>
<path d="M64.5 1.01082L64.4839 0.0109472L64.5 1.01082ZM0.677933 18.458C0.155075 18.2801 -0.124588 17.7121 0.0532837 17.1892L2.95188 8.66876C3.12975 8.14591 3.69781 7.86624 4.22066 8.04411C4.74352 8.22199 5.02319 8.79004 4.84531 9.3129L2.26878 16.8866L9.84252 19.4632C10.3654 19.641 10.645 20.2091 10.4672 20.732C10.2893 21.2548 9.72124 21.5345 9.19839 21.3566L0.677933 18.458ZM129.5 17.5107C129.053 18.4052 129.053 18.4052 129.053 18.4051C129.053 18.405 129.052 18.4049 129.052 18.4047C129.051 18.4043 129.05 18.4037 129.048 18.4027C129.044 18.4009 129.038 18.398 129.031 18.3942C129.015 18.3864 128.991 18.3747 128.96 18.3591C128.896 18.3278 128.801 18.2811 128.674 18.2198C128.422 18.0973 128.045 17.9168 127.554 17.6868C126.572 17.2269 125.132 16.5689 123.307 15.7803C119.654 14.2029 114.461 12.1039 108.304 10.0205C95.9741 5.84815 79.8497 1.76337 64.5161 2.01069L64.4839 0.0109472C80.1503 -0.241737 96.5259 3.92345 108.946 8.12604C115.164 10.2302 120.408 12.3499 124.1 13.9443C125.946 14.7416 127.404 15.4079 128.403 15.8757C128.902 16.1096 129.286 16.2939 129.547 16.4201C129.677 16.4832 129.776 16.5318 129.843 16.5649C129.877 16.5814 129.902 16.5941 129.92 16.6027C129.928 16.607 129.935 16.6103 129.94 16.6126C129.942 16.6137 129.944 16.6146 129.945 16.6152C129.946 16.6155 129.946 16.6158 129.946 16.616C129.947 16.6162 129.947 16.6163 129.5 17.5107ZM64.5161 2.01069C49.1644 2.25829 33.4014 6.34811 21.4457 10.3957C15.4745 12.4173 10.4676 14.4233 6.9552 15.9231C5.19927 16.6729 3.81756 17.2958 2.8764 17.7306C2.40583 17.948 2.04546 18.1183 1.80357 18.2338C1.68262 18.2916 1.5913 18.3357 1.53064 18.3651C1.50031 18.3798 1.47765 18.3909 1.46278 18.3981C1.45535 18.4018 1.44986 18.4044 1.44633 18.4062C1.44458 18.407 1.44331 18.4077 1.44254 18.408C1.44215 18.4082 1.44194 18.4083 1.44174 18.4084C1.44165 18.4085 1.4417 18.4084 1 17.5113C0.558304 16.6141 0.558594 16.614 0.55899 16.6138C0.559296 16.6136 0.55983 16.6134 0.56044 16.6131C0.561646 16.6125 0.563339 16.6116 0.565521 16.6106C0.569916 16.6084 0.576263 16.6053 0.584564 16.6012C0.601181 16.5931 0.62561 16.5812 0.657715 16.5656C0.721939 16.5345 0.816895 16.4887 0.941559 16.4291C1.19087 16.31 1.55901 16.1361 2.03767 15.915C2.99494 15.4728 4.39448 14.8418 6.1698 14.0837C9.71993 12.5678 14.7755 10.5424 20.8043 8.50136C32.8486 4.42376 48.8356 0.263339 64.4839 0.0109472L64.5161 2.01069Z" fill="#303030"/>
</svg>
