<svg width="9" height="9" viewBox="0 0 9 9" fill="none" xmlns="http://www.w3.org/2000/svg">
<path fill-rule="evenodd" clip-rule="evenodd" d="M4 1H0.666667C0.298477 1 0 1.29848 0 1.66667V8.33333C0 8.70152 0.298477 9 0.666667 9H7.33333C7.70152 9 8 8.70152 8 8.33333V5H7.33333V8.33333H0.666667L0.666667 1.66667H4V1Z" fill="#FFFFFF"/>
<path fill-rule="evenodd" clip-rule="evenodd" d="M4.99994 0.666631L7.99994 0.666631C8.18404 0.66663 8.33328 0.815869 8.33328 0.999964V3.99996C8.33328 4.18406 8.18404 4.3333 7.99994 4.3333C7.81585 4.3333 7.66661 4.18406 7.66661 3.99996V1.8047L4.90231 4.569L4.43091 4.0976L7.19521 1.3333L4.99994 1.3333C4.81585 1.3333 4.66661 1.18406 4.66661 0.999964C4.66661 0.815869 4.81585 0.666631 4.99994 0.666631Z" fill="#FFFFFF"/>
</svg>
