<svg width="20" height="20" viewBox="0 0 20 20" fill="none" xmlns="http://www.w3.org/2000/svg">
<path d="M12.9573 18.0833C11.1519 18.9672 9.1026 19.2212 7.13606 18.8049C5.16953 18.3886 3.39896 17.3259 2.10661 15.7863C0.814263 14.2467 0.0745296 12.3187 0.00533402 10.3098C-0.0638616 8.30089 0.541464 6.32662 1.72481 4.70173C2.90816 3.07684 4.60142 1.89488 6.53465 1.34425C8.46788 0.79362 10.5298 0.90603 12.3917 1.66356C14.2536 2.42109 15.8084 3.78012 16.8081 5.52403C17.8077 7.26793 18.1949 9.2963 17.9077 11.2858L16.6853 11.1093C16.933 9.39287 16.599 7.64285 15.7365 6.13827C14.874 4.63369 13.5327 3.46115 11.9263 2.80758C10.3199 2.15401 8.5409 2.05702 6.87297 2.53209C5.20504 3.00715 3.74415 4.02692 2.7232 5.42882C1.70224 6.83072 1.17998 8.53406 1.23968 10.2673C1.29938 12.0005 1.9376 13.6639 3.0526 14.9922C4.1676 16.3206 5.69519 17.2374 7.39185 17.5966C9.08852 17.9557 10.8566 17.7366 12.4142 16.974L12.9573 18.0833Z" fill="#5A5A5A"/>
<rect x="16.6553" y="11.516" width="3.05439" height="1" transform="rotate(-40.0685 16.6553 11.516)" fill="#5A5A5A"/>
<rect x="15.4994" y="9.67889" width="3" height="1" transform="rotate(37.1338 15.4994 9.67889)" fill="#5A5A5A"/>
<path d="M8.88056 10.4253C8.34783 10.4482 7.81915 10.3256 7.35432 10.0716C6.88949 9.81752 6.50707 9.44205 6.25032 8.98767C5.99358 8.53328 5.87274 8.0181 5.9015 7.50042C5.93026 6.98274 6.10745 6.48322 6.41304 6.05835C6.71863 5.63349 7.14042 5.30025 7.63068 5.09634C8.12095 4.89242 8.66013 4.82597 9.18723 4.90449C9.71432 4.98301 10.2083 5.20338 10.6133 5.54066C11.0182 5.87794 11.318 6.31867 11.4788 6.813L10.4747 7.12156C10.3732 6.80942 10.1839 6.53111 9.92821 6.31814C9.67249 6.10516 9.36057 5.96601 9.02774 5.91643C8.69491 5.86685 8.35444 5.90881 8.04486 6.03757C7.73528 6.16634 7.46895 6.37676 7.27598 6.64504C7.08302 6.91332 6.97113 7.22874 6.95297 7.55563C6.93481 7.88252 7.01111 8.20783 7.17324 8.49475C7.33536 8.78167 7.57684 9.01876 7.87035 9.17918C8.16387 9.33961 8.4977 9.41698 8.83409 9.40253L8.88056 10.4253Z" fill="#5A5A5A"/>
<rect x="5" y="8.44446" width="8" height="5.55556" rx="1" fill="#5A5A5A"/>
</svg>
