<svg width="150" height="24" viewBox="0 0 150 24" fill="none" xmlns="http://www.w3.org/2000/svg">
<g clip-path="url(#clip0_765_2642)">
<path d="M18.1036 2.87518C18.1111 1.901 17.971 0.931403 17.6884 0H12.6769C12.7914 0.364232 12.8482 0.744449 12.8453 1.1266V1.22049H4.61664C4.64486 0.802462 4.7349 0.391067 4.88376 0H0V6.05254C1.17884 9.34726 4.425 11.2279 9.13165 11.2279C13.124 11.2279 16.1553 9.72573 17.7639 7.12047L13.7744 5.28387C12.8772 6.7508 11.2687 7.56348 9.28844 7.56348C6.56491 7.56348 4.80246 6.25205 4.61664 4.125H18.1036V2.87518Z" fill="#303030"/>
<path d="M24.7498 4.47998L28.9571 4.97874C30.6585 5.19878 31.155 5.50977 31.155 6.32244C31.155 7.26128 30.194 7.76003 28.0279 7.76003C24.8108 7.76003 22.6477 6.87988 21.193 5.26039L18.3475 7.63682C20.2348 10.0103 23.481 11.2308 27.7521 11.2308C33.1324 11.2308 35.882 9.19762 35.882 5.91757C35.882 3.19789 34.3344 1.69575 30.5918 1.197L25.9316 0.66597C25.0605 0.539814 24.5146 0.343249 24.2475 0.00878906H19.2621C19.3986 2.55244 21.1901 3.99003 24.7498 4.47998Z" fill="#303030"/>
<path d="M42.113 16.8491V8.56393C43.3789 10.1893 45.3911 11.222 47.9897 11.222C52.6906 11.222 55.8787 7.93901 55.8787 2.87518C55.8832 1.90247 55.7492 0.934169 55.4809 0H49.6332C50.1308 0.872572 50.3763 1.86869 50.3416 2.87518C50.3416 5.78263 48.7621 7.59575 46.1954 7.59575C43.6286 7.59575 41.9881 5.87651 41.9881 3.21844V2.59353C41.9608 1.67953 42.2001 0.777608 42.6763 0H36.7588V16.8491H42.113Z" fill="#303030"/>
<path d="M62.8704 10.7526V4.90834C62.8704 3.21843 63.2101 1.68109 64.2612 0.718789C64.5815 0.414723 64.9532 0.171265 65.3587 0H57.5192V10.7526H62.8704Z" fill="#303030"/>
<path d="M78.8022 11.2279C82.7917 11.2279 85.8259 9.72574 87.4345 7.12048L83.4421 5.27802C82.5449 6.74495 80.9363 7.55762 78.9561 7.55762C76.2355 7.55762 74.4701 6.24619 74.2872 4.11914H87.7742V2.86933C87.7816 1.89515 87.6416 0.925544 87.359 -0.00585938H82.3446C82.46 0.358213 82.5179 0.738434 82.5159 1.12074V1.21463H74.2872C74.3126 0.796198 74.4028 0.384376 74.5544 -0.00585938H69.6706C69.3344 0.981317 69.1665 2.019 69.1741 3.06296C69.1741 8.19134 72.8326 11.2279 78.8022 11.2279Z" fill="#303030"/>
<path d="M94.2723 4.47998L98.4795 4.97874C100.178 5.19878 100.675 5.50977 100.675 6.32244C100.675 7.26128 99.7164 7.76003 97.5504 7.76003C94.3333 7.76003 92.1672 6.87988 90.7125 5.26039L87.8671 7.63682C89.7544 10.0103 93.0034 11.2308 97.2716 11.2308C102.655 11.2308 105.402 9.19762 105.402 5.91757C105.402 3.19789 103.854 1.69575 100.111 1.197L95.4453 0.66597C94.5743 0.539814 94.0284 0.343249 93.7642 0.00878906H88.7788C88.9182 2.55244 90.7038 3.99003 94.2723 4.47998Z" fill="#303030"/>
<path d="M111.998 4.47998L116.206 4.97874C117.907 5.19878 118.401 5.50977 118.401 6.32244C118.401 7.26128 117.442 7.76003 115.276 7.76003C112.059 7.76003 109.893 6.87988 108.442 5.26039L105.593 7.63682C107.48 10.0103 110.73 11.2308 114.998 11.2308C120.381 11.2308 123.128 9.19762 123.128 5.91757C123.128 3.19789 121.583 1.69575 117.837 1.197L113.174 0.66597C112.303 0.539814 111.754 0.343249 111.49 0.00878906H106.505C106.63 2.55244 108.43 3.99003 111.998 4.47998Z" fill="#303030"/>
<path d="M133.528 11.2278C139.19 11.2278 143.183 8.19713 143.183 2.91325C143.19 1.92367 143.029 0.940143 142.706 0.00579834H137.015C137.523 0.886602 137.773 1.89478 137.735 2.91325C137.735 5.94393 136.098 7.63383 133.528 7.63383C130.959 7.63383 129.292 5.94393 129.292 2.91325C129.255 1.89478 129.505 0.886602 130.012 0.00579834H124.321C123.999 0.940318 123.839 1.92384 123.848 2.91325C123.848 8.19126 127.826 11.2278 133.528 11.2278Z" fill="#303030"/>
<path d="M8.82387 20.7511C10.7983 20.7511 12.2065 21.5902 12.6769 23.0337H17.6884C16.6199 19.6363 13.5683 17.6823 8.88485 17.6823C4.38726 17.6823 1.17303 19.6509 0 23.0278H4.88376C5.43834 21.6019 6.80591 20.7511 8.82387 20.7511Z" fill="#303030"/>
<path d="M24.0442 22.4088C24.0442 21.5022 24.9414 21.0944 26.9825 21.0944C29.799 21.0944 31.7792 21.7516 33.3558 23.0337L35.8296 20.5018C34.0875 18.6887 31.0969 17.6882 27.3861 17.6882C22.1598 17.6882 19.2562 19.563 19.2562 22.7227C19.2562 22.8284 19.2562 22.931 19.2562 23.0337H24.2416C24.1056 22.8551 24.0358 22.634 24.0442 22.4088Z" fill="#303030"/>
<path d="M46.236 21.3144C47.7923 21.3144 48.9566 21.9247 49.6419 23.0337H55.4896C54.5198 19.736 51.8515 17.6823 48.2046 17.6823C45.513 17.6823 43.225 18.7444 41.9271 20.7453V18.1517H36.7588V23.0278H42.6763C43.3934 21.9247 44.6391 21.3144 46.236 21.3144Z" fill="#303030"/>
<path d="M67.789 22.5965C68.3167 22.604 68.8433 22.6462 69.3656 22.7227V17.8144C69.0291 17.7565 68.6875 17.7349 68.3465 17.7498C65.2832 17.7498 63.2101 19.5336 62.3739 22.444V18.1605H57.5192V23.0366H65.3587C66.1314 22.7267 66.9579 22.5771 67.789 22.5965Z" fill="#303030"/>
<path d="M78.4944 20.7511C80.4688 20.7511 81.8771 21.5902 82.3445 23.0337H87.359C86.305 19.6363 83.2359 17.6823 78.5554 17.6823C74.0578 17.6823 70.8407 19.6509 69.6706 23.0278H74.5543C75.1089 21.6019 76.4765 20.7511 78.4944 20.7511Z" fill="#303030"/>
<path d="M93.5638 22.4088C93.5638 21.5022 94.461 21.0944 96.5051 21.0944C99.3186 21.0944 101.299 21.7516 102.875 23.0337L105.352 20.5018C103.61 18.6887 100.619 17.6882 96.9057 17.6882C91.6794 17.6882 88.7758 19.563 88.7758 22.7227C88.7758 22.8284 88.7758 22.931 88.7758 23.0337H93.7612C93.6241 22.8557 93.5541 22.6342 93.5638 22.4088Z" fill="#303030"/>
<path d="M111.275 22.4088C111.275 21.5022 112.173 21.0944 114.214 21.0944C117.027 21.0944 119.007 21.7516 120.587 23.0337L123.061 20.5018C121.319 18.6887 118.328 17.6882 114.614 17.6882C109.388 17.6882 106.484 19.563 106.484 22.7227C106.484 22.8284 106.484 22.931 106.499 23.0337H111.484C111.344 22.8567 111.27 22.6355 111.275 22.4088Z" fill="#303030"/>
<path d="M133.528 21.2822C135.087 21.2822 136.301 21.8865 137.012 23.0425H142.703C141.493 19.5981 138.043 17.6823 133.528 17.6823C129.013 17.6823 125.535 19.5923 124.321 23.0278H130.012C130.729 21.8865 131.952 21.2822 133.528 21.2822Z" fill="#303030"/>
<path d="M146.199 17.6823H147.12L148.104 19.9032L149.083 17.6823H150V20.7306H149.373V18.4304L148.363 20.7306H147.814L146.827 18.4304V20.7306H146.199V17.6823ZM143.183 17.6823H145.851V18.2955H144.852V20.7306H144.179V18.2955H143.183V17.6823Z" fill="#303030"/>
<path d="M144.178 20.7365H144.852V18.3014H145.851V17.6882H143.183V18.3014H144.178V20.7365Z" fill="#303030"/>
<path d="M146.826 18.4364L147.814 20.7365H148.362L149.373 18.4364V20.7365H150V17.6882H149.082L148.104 19.9092L147.12 17.6882H146.199V20.7365H146.826V18.4364Z" fill="#303030"/>
</g>
<defs>
<clipPath id="clip0_765_2642">
<rect width="150" height="23.0337" fill="white"/>
</clipPath>
</defs>
</svg>
