<svg width="25" height="25" viewBox="0 0 25 25" fill="none" xmlns="http://www.w3.org/2000/svg">
<g opacity="0.9">
<path fill-rule="evenodd" clip-rule="evenodd" d="M7.94779 23.3182H17.0651L17.0525 23.3308C18.263 23.3308 19.4106 22.675 20.0285 21.6284L24.5178 14.0622C25.1609 12.9651 25.1609 11.6158 24.5178 10.5187L20.0285 2.95246C19.4106 1.9058 18.2757 1.25006 17.0525 1.25006H7.94779C6.7372 1.25006 5.58966 1.9058 4.97175 2.95246L0.482468 10.5061C-0.16066 11.6032 -0.16066 12.9525 0.482468 14.0496L4.97175 21.6158C5.58966 22.6624 6.72459 23.3182 7.94779 23.3182ZM6.58587 3.91084C6.87591 3.43165 7.39293 3.14161 7.94779 3.14161H17.0651C17.6199 3.14161 18.1496 3.43165 18.427 3.91084L22.9163 11.477C23.2063 11.9815 23.2063 12.5994 22.9163 13.0912L18.427 20.6574C18.1369 21.1366 17.6199 21.4266 17.0651 21.4266H7.9604C7.40554 21.4266 6.87591 21.1366 6.59848 20.6574L2.1092 13.0912C1.81916 12.5868 1.81916 11.9689 2.1092 11.477L6.58587 3.91084ZM7.1405 12.2843C7.1405 15.2352 9.54908 17.6437 12.4999 17.6437C15.4507 17.6437 17.8593 15.2352 17.8593 12.2843C17.8593 9.33353 15.4507 6.92495 12.4999 6.92495C9.54908 6.92495 7.1405 9.33353 7.1405 12.2843ZM9.03205 12.2843C9.03205 10.3676 10.5831 8.8165 12.4999 8.8165C14.4167 8.8165 15.9677 10.3676 15.9677 12.2843C15.9677 14.2011 14.4167 15.7522 12.4999 15.7522C10.5831 15.7522 9.03205 14.2011 9.03205 12.2843Z" fill="#FFFFFF"/>
</g>
</svg>
