<svg width="20" height="20" viewBox="0 0 20 20" fill="none" xmlns="http://www.w3.org/2000/svg">
<path fill-rule="evenodd" clip-rule="evenodd" d="M0.833333 3.82353H15.8333V7.94118H16.6667V3.82353C16.6667 3.36871 16.2936 3 15.8333 3H0.833333C0.373096 3 0 3.36871 0 3.82353V12.0588C0 12.5136 0.373096 12.8824 0.833333 12.8824H4.16667V12.0588H0.833333V3.82353Z" fill="#5A5A5A"/>
<path fill-rule="evenodd" clip-rule="evenodd" d="M19.1666 7.94121H4.16659V16.1765H19.1666V7.94121ZM4.16659 7.11768C3.70635 7.11768 3.33325 7.48638 3.33325 7.94121V16.1765C3.33325 16.6313 3.70635 17 4.16659 17H19.1666C19.6268 17 19.9999 16.6313 19.9999 16.1765V7.94121C19.9999 7.48638 19.6268 7.11768 19.1666 7.11768H4.16659Z" fill="#5A5A5A"/>
</svg>
