<svg width="20" height="20" viewBox="0 0 20 20" fill="none" xmlns="http://www.w3.org/2000/svg">
<path fill-rule="evenodd" clip-rule="evenodd" d="M18.8522 13.5774C18.0719 13.6998 17.2764 13.7175 16.4883 13.6288C14.3385 13.3783 12.3594 12.3732 10.9278 10.8051C9.49615 9.23696 8.71213 7.21535 8.72507 5.12531C8.7474 3.69263 9.15085 2.29454 9.88999 1.06281L9.92035 1.01263C10.0026 0.877797 10.0888 0.744984 10.1791 0.614383L10.1969 0.588692C10.2536 0.507356 10.3118 0.426883 10.3715 0.347316C10.3953 0.314348 10.4093 0.275732 10.4121 0.235645C10.4148 0.195557 10.4062 0.155513 10.3871 0.119797C10.3681 0.0840824 10.3393 0.0540574 10.3039 0.0329523C10.2685 0.0118472 10.2278 0.000445354 10.1861 0C10.0867 0.00169421 9.98738 0.00476767 9.88818 0.00921409L9.86977 0.0100547C9.6931 0.0182774 9.51683 0.0308555 9.34114 0.0477526C9.31208 0.0505466 9.28305 0.0534583 9.25403 0.0564883C8.21095 0.165402 7.18919 0.426696 6.22419 0.832898C4.97319 1.35948 3.84218 2.11925 2.89606 3.06865C1.94993 4.01804 1.20728 5.13837 0.710711 6.36539C0.214139 7.59241 -0.0265871 8.902 0.00232761 10.219C0.0908924 12.7723 1.1762 15.1988 3.04063 17.012C4.90507 18.8253 7.41078 19.8912 10.0553 19.996C12.1821 20.0543 14.2761 19.4796 16.053 18.35C17.5675 17.3873 18.7892 16.0611 19.6027 14.5084C19.6157 14.4836 19.6286 14.4587 19.6414 14.4337C19.7195 14.2817 19.7936 14.1275 19.8637 13.9713L19.8717 13.9535C19.9119 13.8634 19.9508 13.7728 19.9883 13.6814C20.0012 13.6439 20.0035 13.6037 19.9948 13.565C19.9862 13.5264 19.9669 13.4906 19.939 13.4616C19.9112 13.4326 19.8758 13.4113 19.8365 13.4C19.7972 13.3887 19.7555 13.3878 19.7157 13.3973C19.6204 13.4222 19.5247 13.4455 19.4287 13.4672L19.3646 13.4814C19.214 13.5142 19.0627 13.5431 18.9109 13.568L18.8522 13.5774ZM7.63485 5.10948C7.65594 3.75646 7.97892 2.43083 8.57362 1.22016C7.9176 1.34506 7.27591 1.53834 6.66004 1.79757C5.54058 2.26879 4.5285 2.94867 3.68187 3.79823C2.83523 4.64779 2.17068 5.65031 1.72632 6.74831C1.28278 7.8443 1.06734 9.0139 1.09229 10.1903C1.17325 12.4757 2.14548 14.6475 3.81453 16.2707C5.48354 17.8939 7.72606 18.8487 10.0931 18.9442C11.994 18.9949 13.8652 18.4807 15.4533 17.4711C16.5836 16.7526 17.5316 15.8078 18.2375 14.708C17.6141 14.7554 16.986 14.7444 16.3621 14.6742C13.9466 14.3926 11.7183 13.2628 10.1097 11.5009C8.50114 9.73892 7.62021 7.46742 7.63475 5.11902L7.63485 5.10948Z" fill="#5A5A5A"/>
</svg>
