<svg width="20" height="20" viewBox="0 0 20 20" fill="none" xmlns="http://www.w3.org/2000/svg">
<path d="M13.5265 18.4837C16.7867 18.4837 19.4297 15.8231 19.4297 12.541C19.4297 9.25896 16.7867 6.59833 13.5265 6.59833C10.2662 6.59833 7.62329 9.25896 7.62329 12.541C7.62329 15.8231 10.2662 18.4837 13.5265 18.4837Z" fill="#5A5A5A"/>
<path fill-rule="evenodd" clip-rule="evenodd" d="M13.5266 7.1146C10.5496 7.1146 8.13624 9.54409 8.13624 12.541C8.13624 15.538 10.5496 17.9675 13.5266 17.9675C16.5036 17.9675 18.917 15.538 18.917 12.541C18.917 9.54409 16.5036 7.1146 13.5266 7.1146ZM7.1106 12.541C7.1106 8.97386 9.98314 6.08209 13.5266 6.08209C17.0701 6.08209 19.9426 8.97386 19.9426 12.541C19.9426 16.1082 17.0701 19 13.5266 19C9.98314 19 7.1106 16.1082 7.1106 12.541Z" fill="#DCDCDC"/>
<path d="M6.44487 18.3444C9.72099 18.3444 12.3768 15.7149 12.3768 12.4714C12.3768 9.22777 9.72099 6.59833 6.44487 6.59833C3.16875 6.59833 0.512939 9.22777 0.512939 12.4714C0.512939 15.7149 3.16875 18.3444 6.44487 18.3444Z" fill="#F0F0F0"/>
<path fill-rule="evenodd" clip-rule="evenodd" d="M6.44475 7.1146C3.44377 7.1146 1.02564 9.52097 1.02564 12.4714C1.02564 15.4218 3.44377 17.8281 6.44475 17.8281C9.44573 17.8281 11.8639 15.4218 11.8639 12.4714C11.8639 9.52098 9.44573 7.1146 6.44475 7.1146ZM0 12.4714C0 8.9346 2.89349 6.08209 6.44475 6.08209C9.99601 6.08209 12.8895 8.93459 12.8895 12.4714C12.8895 16.0081 9.99601 18.8606 6.44475 18.8606C2.89349 18.8606 0 16.0081 0 12.4714Z" fill="#DCDCDC"/>
<path fill-rule="evenodd" clip-rule="evenodd" d="M10.1037 1.0325C7.10271 1.0325 4.68458 3.43888 4.68458 6.38928C4.68458 9.33967 7.10271 11.7461 10.1037 11.7461C13.1047 11.7461 15.5228 9.33967 15.5228 6.38928C15.5228 3.43888 13.1047 1.0325 10.1037 1.0325ZM3.65894 6.38928C3.65894 2.8525 6.55243 0 10.1037 0C13.6549 0 16.5484 2.8525 16.5484 6.38928C16.5484 9.92605 13.6549 12.7786 10.1037 12.7786C6.55243 12.7786 3.65894 9.92605 3.65894 6.38928Z" fill="#DCDCDC"/>
<path fill-rule="evenodd" clip-rule="evenodd" d="M13.5553 7.1146C10.5544 7.1146 8.13624 9.52097 8.13624 12.4714C8.13624 15.4218 10.5544 17.8281 13.5553 17.8281C16.5563 17.8281 18.9745 15.4218 18.9745 12.4714C18.9745 9.52097 16.5563 7.1146 13.5553 7.1146ZM7.1106 12.4714C7.1106 8.9346 10.0041 6.08209 13.5553 6.08209C17.1066 6.08209 20.0001 8.9346 20.0001 12.4714C20.0001 16.0081 17.1066 18.8606 13.5553 18.8606C10.0041 18.8606 7.1106 16.0081 7.1106 12.4714Z" fill="#DCDCDC"/>
<path fill-rule="evenodd" clip-rule="evenodd" d="M6.41599 7.1146C3.43898 7.1146 1.02564 9.54409 1.02564 12.541C1.02564 15.538 3.43898 17.9675 6.41599 17.9675C9.393 17.9675 11.8064 15.538 11.8064 12.541C11.8064 9.5441 9.393 7.1146 6.41599 7.1146ZM0 12.541C0 8.97386 2.87253 6.08209 6.41599 6.08209C9.95944 6.08209 12.832 8.97385 12.832 12.541C12.832 16.1082 9.95944 19 6.41599 19C2.87253 19 0 16.1082 0 12.541Z" fill="#DCDCDC"/>
<path fill-rule="evenodd" clip-rule="evenodd" d="M10.0749 1.0325C7.09792 1.0325 4.68458 3.462 4.68458 6.45893C4.68458 9.45587 7.09793 11.8854 10.0749 11.8854C13.052 11.8854 15.4653 9.45587 15.4653 6.45893C15.4653 3.462 13.052 1.0325 10.0749 1.0325ZM3.65894 6.45893C3.65894 2.89176 6.53148 0 10.0749 0C13.6184 0 16.491 2.89176 16.491 6.45893C16.491 10.0261 13.6184 12.9179 10.0749 12.9179C6.53148 12.9179 3.65894 10.0261 3.65894 6.45893Z" fill="#DCDCDC"/>
</svg>
