<svg width="20" height="20" viewBox="0 0 20 20" fill="none" xmlns="http://www.w3.org/2000/svg">
<path fill-rule="evenodd" clip-rule="evenodd" d="M1 1.5C1 1.22386 1.22386 1 1.5 1H12.5C12.7761 1 13 1.22386 13 1.5V6H14V1C14 0.447715 13.5523 0 13 0H1C0.447715 0 0 0.447716 0 1V13C0 13.5523 0.447716 14 1 14H6V13H1.5C1.22386 13 1 12.7761 1 12.5V1.5Z" fill="#101828"/>
<path fill-rule="evenodd" clip-rule="evenodd" d="M19 7.5C19 7.22386 18.7761 7 18.5 7H7.5C7.22386 7 7 7.22386 7 7.5V18.5C7 18.7761 7.22386 19 7.5 19H18.5C18.7761 19 19 18.7761 19 18.5V7.5ZM7 6C6.44772 6 6 6.44772 6 7V19C6 19.5523 6.44772 20 7 20H19C19.5523 20 20 19.5523 20 19V7C20 6.44772 19.5523 6 19 6H7Z" fill="#101828"/>
<path d="M7 7.5C7 7.22386 7.22386 7 7.5 7H18.5C18.7761 7 19 7.22386 19 7.5V18.5C19 18.7761 18.7761 19 18.5 19H7.5C7.22386 19 7 18.7761 7 18.5V7.5Z" fill="#101828"/>
</svg>
