<svg width="20" height="20" viewBox="0 0 20 20" fill="none" xmlns="http://www.w3.org/2000/svg">
<path fill-rule="evenodd" clip-rule="evenodd" d="M0 2C0 1.44772 0.447715 1 1 1H11C11.5523 1 12 1.44772 12 2V6.9996H16.5C16.7761 6.9996 17 7.22346 17 7.4996V7.9996V18.4996C17 18.7757 16.7761 18.9996 16.5 18.9996H5.5C5.22386 18.9996 5 18.7757 5 18.4996V13H1C0.447715 13 0 12.5523 0 12V2ZM11 13H6V17.4996C6 17.7757 6.22386 17.9996 6.5 17.9996H15.5C15.7761 17.9996 16 17.7757 16 17.4996V8.4996C16 8.22346 15.7761 7.9996 15.5 7.9996H12V12C12 12.5523 11.5523 13 11 13ZM15.9999 3.00189H15.9341V1.28711L14 3.5L15.9341 5.68478V4.00189H15.9999C17.3806 4.00189 18.4999 5.12117 18.4999 6.50188V7.50188C18.4999 7.77803 18.7237 8.00188 18.9999 8.00188C19.276 8.00188 19.4999 7.77803 19.4999 7.50188V6.50188C19.4999 4.56889 17.9328 3.00189 15.9999 3.00189Z" fill="#101828"/>
</svg>
