<svg width="20" height="20" viewBox="0 0 20 20" fill="none" xmlns="http://www.w3.org/2000/svg">
<path d="M11.835 1.82189C12.2492 1.10446 13.1666 0.858643 13.884 1.27286L15.6161 2.27286C16.3335 2.68707 16.5793 3.60446 16.1651 4.32189L14.9151 6.48696L10.585 3.98696L11.835 1.82189Z" stroke="#5A5A5A"/>
<mask id="path-2-inside-1_929_1421" fill="white">
<path fill-rule="evenodd" clip-rule="evenodd" d="M14.5981 8.03589L9.40198 5.03589L4.40198 13.6961L5.00005 18.6602L9.59813 16.6961L14.5981 8.03589Z"/>
</mask>
<path d="M7.84813 19.7272L2.65198 16.7272L2.15198 17.5933L7.34813 20.5933L7.84813 19.7272ZM9.40198 5.03589L9.90198 4.16986L9.03595 3.66986L8.53595 4.53589L9.40198 5.03589ZM14.5981 8.03589L15.4642 8.53589L15.9642 7.66986L15.0981 7.16986L14.5981 8.03589ZM4.40198 13.6961L3.53595 13.1961L3.36929 13.4848L3.40916 13.8158L4.40198 13.6961ZM5.00005 18.6602L4.00723 18.7799L4.16672 20.1036L5.39287 19.5799L5.00005 18.6602ZM9.59813 16.6961L9.99095 17.6158L10.2975 17.4848L10.4642 17.1961L9.59813 16.6961ZM8.90198 5.90191L14.0981 8.90191L15.0981 7.16986L9.90198 4.16986L8.90198 5.90191ZM5.268 14.1961L10.268 5.53589L8.53595 4.53589L3.53595 13.1961L5.268 14.1961ZM5.99287 18.5406L5.3948 13.5765L3.40916 13.8158L4.00723 18.7799L5.99287 18.5406ZM5.39287 19.5799L9.99095 17.6158L9.20531 15.7765L4.60723 17.7406L5.39287 19.5799ZM13.7321 7.53589L8.7321 16.1961L10.4642 17.1961L15.4642 8.53589L13.7321 7.53589Z" fill="#5A5A5A" mask="url(#path-2-inside-1_929_1421)"/>
</svg>
