<svg width="14" height="14" viewBox="0 0 14 14" fill="none" xmlns="http://www.w3.org/2000/svg">
<path fill-rule="evenodd" clip-rule="evenodd" d="M10.7562 1.89411L9.54377 1.19411C9.20897 1.00081 8.78085 1.11552 8.58755 1.45033L7.88755 2.66276L10.3124 4.06276L11.0124 2.85033C11.2057 2.51552 11.091 2.08741 10.7562 1.89411ZM9.89377 0.587894C9.22416 0.201294 8.36793 0.430719 7.98134 1.10033L6.93134 2.91898L10.5686 5.01898L11.6186 3.20033C12.0052 2.53072 11.7758 1.67449 11.1062 1.28789L9.89377 0.587894Z" fill="#5A5A5A"/>
<path fill-rule="evenodd" clip-rule="evenodd" d="M3.50001 13.0623L3.08136 9.58739L6.58136 3.52521L10.2187 5.62521L6.71867 11.6874L3.50001 13.0623ZM4.08335 12.0519L6.22912 11.1353L9.26245 5.88143L6.83758 4.48143L3.80424 9.73531L4.08335 12.0519Z" fill="#5A5A5A"/>
</svg>
