<svg width="20" height="20" viewBox="0 0 20 20" fill="none" xmlns="http://www.w3.org/2000/svg">
<path d="M0.00405121 10.9333C0.00405121 6.47831 3.4228 2.86652 7.64018 2.86652C7.7312 2.86652 15.9701 2.86829 16.0604 2.87181L16.0387 0L20 4.18464L19.989 4.19621L19.9943 4.19999L18.1876 6.10857L18.1816 6.1053L16.1014 8.30308L16.0802 5.49318C15.9849 5.4874 7.73811 5.48412 7.64018 5.48412C4.79135 5.48412 2.48192 7.92378 2.48192 10.9333H2.47787C2.47787 13.9427 4.7873 16.3824 7.63613 16.3824C7.73406 16.3824 16.075 16.3791 16.1714 16.3733L16.1517 18.9947C16.0614 18.9982 7.72715 19 7.63613 19C3.41899 19 0 15.3885 0 10.9333H0.00405121Z" fill="#101828"/>
</svg>
