<svg width="20" height="20" viewBox="0 0 20 20" fill="none" xmlns="http://www.w3.org/2000/svg">
<path d="M6.67919 18.0833C8.48457 18.9672 10.5339 19.2212 12.5004 18.8049C14.4669 18.3886 16.2375 17.3259 17.5299 15.7863C18.8222 14.2467 19.5619 12.3187 19.6311 10.3098C19.7003 8.30089 19.095 6.32662 17.9117 4.70173C16.7283 3.07684 15.0351 1.89488 13.1018 1.34425C11.1686 0.79362 9.10667 0.90603 7.24476 1.66356C5.38284 2.42109 3.82812 3.78012 2.82842 5.52403C1.82873 7.26793 1.44162 9.2963 1.7288 11.2858L2.95121 11.1093C2.70344 9.39287 3.03743 7.64285 3.89993 6.13827C4.76244 4.63369 6.1038 3.46115 7.71021 2.80758C9.31661 2.15401 11.0956 2.05702 12.7635 2.53209C14.4314 3.00715 15.8923 4.02692 16.9133 5.42882C17.9342 6.83072 18.4565 8.53406 18.3968 10.2673C18.3371 12.0005 17.6989 13.6639 16.5839 14.9922C15.4689 16.3206 13.9413 17.2374 12.2446 17.5966C10.548 17.9557 8.77988 17.7366 7.22226 16.974L6.67919 18.0833Z" fill="#DCDCDC"/>
<rect width="3.05439" height="1" transform="matrix(-0.765275 -0.643703 -0.643703 0.765275 2.9812 11.516)" fill="#DCDCDC"/>
<rect width="3" height="1" transform="matrix(-0.797228 0.603679 0.603679 0.797228 4.13696 9.67889)" fill="#DCDCDC"/>
</svg>
