<svg width="15" height="15" viewBox="0 0 15 15" fill="none" xmlns="http://www.w3.org/2000/svg">
<path d="M10.7977 14.2361C9.29325 14.9726 7.5855 15.1843 5.94672 14.8374C4.30794 14.4905 2.83247 13.6049 1.75551 12.3219C0.678552 11.0389 0.062108 9.43228 0.00444502 7.75818C-0.053218 6.08407 0.45122 4.43885 1.43734 3.08477C2.42347 1.7307 3.83451 0.745729 5.44554 0.286873C7.05657 -0.171983 8.77483 -0.078308 10.3264 0.552966C11.878 1.18424 13.1736 2.31677 14.0067 3.77002C14.8398 5.22327 15.1624 6.91358 14.9231 8.5715L13.9044 8.42446C14.1109 6.99406 13.8325 5.53571 13.1138 4.28189C12.395 3.02807 11.2772 2.05096 9.93856 1.50632C8.59989 0.961673 7.11742 0.880853 5.72748 1.27674C4.33753 1.67263 3.12013 2.52243 2.26933 3.69068C1.41853 4.85893 0.98332 6.27838 1.03307 7.72275C1.08282 9.16711 1.61467 10.5533 2.54383 11.6602C3.473 12.7671 4.74599 13.5312 6.15988 13.8305C7.57377 14.1298 9.04716 13.9472 10.3452 13.3117L10.7977 14.2361Z" fill="#5A5A5A"/>
</svg>
