<svg width="20" height="20" viewBox="0 0 20 20" fill="none" xmlns="http://www.w3.org/2000/svg">
<path fill-rule="evenodd" clip-rule="evenodd" d="M6.04103 10.45V18.5C6.04103 18.7761 6.26488 19 6.54103 19H13.459C13.7351 19 13.959 18.7761 13.959 18.5V10.45H16.9875C17.4018 10.45 17.6364 9.97503 17.3845 9.64606L10.397 0.518603C10.1969 0.257186 9.80311 0.257186 9.60298 0.518604L2.61545 9.64606C2.36361 9.97503 2.59817 10.45 3.01247 10.45H6.04103ZM4.60732 9.18333H6.86068C7.13683 9.18333 7.36068 9.40719 7.36068 9.68333V17.7333H12.6393V9.68333C12.6393 9.40719 12.8632 9.18333 13.1393 9.18333H15.3927L10 2.13914L4.60732 9.18333Z" fill="#101828"/>
</svg>
