<svg width="41" height="21" viewBox="0 0 41 21" fill="none" xmlns="http://www.w3.org/2000/svg">
<rect x="41" y="21" width="41" height="21" rx="4" transform="rotate(-180 41 21)" fill="#ACACAC"/>
<path fill-rule="evenodd" clip-rule="evenodd" d="M12.1276 6.07159e-07C13.0171 6.84922e-07 13.8812 0.296489 14.5833 0.842591L22.9405 7.34259C24.9995 8.94402 24.9995 12.056 22.9405 13.6574L14.5833 20.1574C13.8812 20.7035 13.0171 21 12.1276 21L4 21C1.79086 21 -1.75079e-06 19.2091 -1.55766e-06 17L-4.21162e-07 4C-2.28033e-07 1.79086 1.79086 -2.96504e-07 4 -1.03375e-07L12.1276 6.07159e-07Z" fill="white"/>
</svg>
