<svg width="25" height="24" viewBox="0 0 25 24" fill="none" xmlns="http://www.w3.org/2000/svg">
<path fill-rule="evenodd" clip-rule="evenodd" d="M8.5 6.30523V3.38092C8.5 3.1267 8.2851 2.92062 8.02 2.92062H1.94C1.6749 2.92062 1.46 3.1267 1.46 3.38092V20.9268C1.46 21.181 1.6749 21.3871 1.94 21.3871H23.06C23.3251 21.3871 23.54 21.181 23.54 20.9268V6.30523H8.5ZM9.5 3.38092C9.5 2.61826 8.81529 2 8.02 2H1.94C1.14471 2 0.5 2.61826 0.5 3.38092V20.9268C0.5 21.6894 1.14471 22.3077 1.94 22.3077H23.06C23.8553 22.3077 24.5 21.6894 24.5 20.9268V5.38462H9.5V3.38092Z" fill="#303030"/>
<path d="M8.02 2.92062C8.2851 2.92062 8.5 3.1267 8.5 3.38092V6.30523H23.54V20.9268C23.54 21.181 23.3251 21.3871 23.06 21.3871H1.94C1.6749 21.3871 1.46 21.181 1.46 20.9268V3.38092C1.46 3.1267 1.6749 2.92062 1.94 2.92062H8.02Z" fill="#F0F0F0"/>
<path fill-rule="evenodd" clip-rule="evenodd" d="M16.7067 5.22286H9.5V3.16571C9.5 2.95111 9.67759 2.77714 9.89667 2.77714H16.31C16.5291 2.77714 16.7067 2.95111 16.7067 3.16571V5.22286ZM8.5 6V3.16571C8.5 2.52191 9.03278 2 9.69 2H16.31C16.9672 2 17.5 2.52191 17.5 3.16571V6H8.5Z" fill="#303030"/>
<path d="M9.5 5.22286H16.7067V3.16571C16.7067 2.95111 16.5291 2.77714 16.31 2.77714H9.89667C9.67759 2.77714 9.5 2.95111 9.5 3.16571V5.22286Z" fill="#F0F0F0"/>
<path fill-rule="evenodd" clip-rule="evenodd" d="M23.7054 5.22286H17.4965V3.16571C17.4965 2.95111 17.6741 2.77714 17.8931 2.77714H23.3088C23.5278 2.77714 23.7054 2.95111 23.7054 3.16571V5.22286ZM16.7031 6V3.16571C16.7031 2.52191 17.2359 2 17.8931 2H23.3088C23.966 2 24.4988 2.52191 24.4988 3.16571V6H16.7031Z" fill="#303030"/>
<path d="M17.4965 5.22286H23.7054V3.16571C23.7054 2.95111 23.5278 2.77714 23.3088 2.77714H17.8931C17.6741 2.77714 17.4965 2.95111 17.4965 3.16571V5.22286Z" fill="#F0F0F0"/>
<path fill-rule="evenodd" clip-rule="evenodd" d="M13 18.7829C13.2199 18.6067 13.4737 18.3019 13.7269 17.7954C13.846 17.5572 13.9553 17.2908 14.0518 17H13V18.7829ZM12 17V18.7829C11.7801 18.6067 11.5263 18.3019 11.2731 17.7954C11.154 17.5572 11.0447 17.2908 10.9482 17H12ZM13 16H14.3121C14.4317 15.3911 14.5 14.7168 14.5 14C14.5 13.2832 14.4317 12.6089 14.3121 12H13V16ZM15.0987 17C14.9198 17.6185 14.6873 18.1671 14.4139 18.6206C15.2468 18.2752 15.9662 17.7111 16.5004 17H15.0987ZM17.084 16H15.3293C15.4398 15.3744 15.5 14.7013 15.5 14C15.5 13.2987 15.4398 12.6256 15.3293 12H17.084C17.3516 12.6125 17.5 13.2889 17.5 14C17.5 14.7111 17.3516 15.3875 17.084 16ZM12 16H10.6879C10.5683 15.3911 10.5 14.7168 10.5 14C10.5 13.2832 10.5683 12.6089 10.6879 12H12V16ZM9.67071 16C9.56015 15.3744 9.5 14.7013 9.5 14C9.5 13.2987 9.56015 12.6256 9.67071 12H7.91604C7.64845 12.6125 7.5 13.2889 7.5 14C7.5 14.7111 7.64845 15.3875 7.91604 16H9.67071ZM8.49963 17C9.03379 17.7111 9.75316 18.2752 10.5861 18.6206C10.3127 18.1671 10.0802 17.6185 9.90135 17H8.49963ZM15.0987 11H16.5004C15.9662 10.2889 15.2468 9.72478 14.4139 9.37938C14.6873 9.83285 14.9198 10.3815 15.0987 11ZM13 11H14.0518C13.9553 10.7092 13.846 10.4428 13.7269 10.2046C13.4737 9.69811 13.2199 9.39335 13 9.2171V11ZM12 9.2171V11H10.9482C11.0447 10.7092 11.154 10.4428 11.2731 10.2046C11.5263 9.69811 11.7801 9.39335 12 9.2171ZM10.5861 9.37938C10.3127 9.83285 10.0802 10.3815 9.90135 11H8.49963C9.03379 10.2889 9.75316 9.72478 10.5861 9.37938ZM12.5 8H13V8.02054C16.0798 8.27461 18.5 10.8547 18.5 14C18.5 17.3137 15.8137 20 12.5 20C9.18629 20 6.5 17.3137 6.5 14C6.5 10.8547 8.92023 8.27461 12 8.02054V8H12.5Z" fill="#303030"/>
</svg>
