<svg width="21" height="20" viewBox="0 0 21 20" fill="none" xmlns="http://www.w3.org/2000/svg">
<path fill-rule="evenodd" clip-rule="evenodd" d="M6.8457 0H1.8457C1.29342 0 0.845703 0.447715 0.845703 1V3C0.845703 3.55228 1.29342 4 1.8457 4H6.8457V0ZM12.8457 4H19.8457C20.398 4 20.8457 3.55228 20.8457 3V1C20.8457 0.447715 20.398 0 19.8457 0H12.8457V4Z" fill="white"/>
<path fill-rule="evenodd" clip-rule="evenodd" d="M10.1822 1.2959C9.7421 1.2959 9.3853 1.6527 9.3853 2.09285L9.38522 10.236C9.38522 11.2107 8.1771 11.6646 7.53528 10.9311L5.44253 8.5394C5.13091 8.18327 4.58304 8.16503 4.24842 8.49965C3.96701 8.78105 3.92895 9.22415 4.15824 9.54943L4.16586 9.56024L8.84066 16.9978C9.50976 17.9398 10.5939 18.4998 11.7499 18.4998H13.951C14.7848 18.4998 15.7378 18.1567 16.4801 17.588C17.2256 17.017 17.6821 16.2821 17.6821 15.5349V7.7146C17.6821 7.46547 17.4802 7.26351 17.231 7.26351C16.9688 7.26351 16.7616 7.4495 16.7049 7.6237V9.05652C16.7049 9.33266 16.481 9.55652 16.2049 9.55652C15.9287 9.55652 15.7049 9.33266 15.7049 9.05652V7.7146H15.6895C15.6895 7.64481 15.6948 7.57677 15.7049 7.51065V6.7146C15.7049 6.32221 15.3868 6.00412 14.9944 6.00412C14.602 6.00412 14.2839 6.32221 14.2839 6.7146V8.45135C14.2839 8.72749 14.0601 8.95135 13.7839 8.95135C13.5078 8.95135 13.2839 8.72749 13.2839 8.45135V6.2146C13.2839 5.86996 13.0045 5.59058 12.6599 5.59058C12.3153 5.59058 12.0359 5.86997 12.0359 6.2146V7.9807C12.0359 8.25684 11.812 8.4807 11.5359 8.4807C11.2598 8.4807 11.0359 8.25684 11.0359 7.9807V2.09284C11.0359 1.67993 10.6504 1.2959 10.1822 1.2959ZM12.0359 2.09284V4.7148C12.228 4.63477 12.4388 4.59058 12.6599 4.59058C13.2238 4.59058 13.7206 4.87801 14.0118 5.31436C14.2898 5.11888 14.6287 5.00412 14.9944 5.00412C15.8218 5.00412 16.512 5.59162 16.6706 6.37223C16.8519 6.30153 17.0433 6.26351 17.231 6.26351C18.0325 6.26351 18.6821 6.91318 18.6821 7.7146V15.5349C18.6821 16.7013 17.98 17.6988 17.0882 18.3819C16.1934 19.0673 15.0309 19.4998 13.951 19.4998H11.7499C10.2644 19.4998 8.87176 18.7776 8.01593 17.5635L8.00831 17.5527L3.33272 10.1139C2.83224 9.39209 2.91927 8.41458 3.54131 7.79254C4.28496 7.04888 5.50257 7.08943 6.19511 7.8809L8.28786 10.2726C8.30164 10.2884 8.3107 10.2907 8.31499 10.2917C8.32241 10.2933 8.33473 10.2935 8.34921 10.288C8.36368 10.2826 8.37286 10.2744 8.37736 10.2683C8.37996 10.2647 8.38522 10.257 8.38522 10.236L8.3853 2.09284C8.3853 1.10042 9.18982 0.295898 10.1822 0.295898C11.1466 0.295898 12.0359 1.07319 12.0359 2.09284Z" fill="white"/>
</svg>
