<svg width="20" height="20" viewBox="0 0 20 20" fill="none" xmlns="http://www.w3.org/2000/svg">
<path d="M19.9959 10.9333C19.9959 6.47831 16.5772 2.86652 12.3598 2.86652C12.2688 2.86652 4.02988 2.86829 3.93958 2.87181L3.96126 0L0 4.18464L0.0109603 4.19621L0.00571793 4.19999L1.81242 6.10857L1.81838 6.1053L3.8986 8.30308L3.9198 5.49318C4.01511 5.4874 12.2619 5.48412 12.3598 5.48412C15.2087 5.48412 17.5181 7.92378 17.5181 10.9333H17.5221C17.5221 13.9427 15.2127 16.3824 12.3639 16.3824C12.2659 16.3824 3.92504 16.3791 3.82855 16.3733L3.84833 18.9947C3.93862 18.9982 12.2729 19 12.3639 19C16.581 19 20 15.3885 20 10.9333H19.9959Z" fill="#101828"/>
</svg>
