<svg width="13" height="13" viewBox="0 0 13 13" fill="none" xmlns="http://www.w3.org/2000/svg">
<path fill-rule="evenodd" clip-rule="evenodd" d="M11.96 6.5C11.96 9.51547 9.51547 11.96 6.5 11.96C3.48452 11.96 1.04 9.51547 1.04 6.5C1.04 3.48452 3.48452 1.04 6.5 1.04C9.51547 1.04 11.96 3.48453 11.96 6.5ZM13 6.5C13 10.0899 10.0898 13 6.5 13C2.91015 13 0 10.0898 0 6.5C0 2.91015 2.91015 0 6.5 0C10.0898 0 13 2.91015 13 6.5ZM6.2351 6.9821C6.15001 7.13337 6.10746 7.30119 6.10746 7.48555V7.78337H7.00092V7.57774C7.00092 7.43119 7.02692 7.31301 7.07892 7.22319C7.13564 7.12865 7.23255 7.03883 7.36964 6.95374L7.82346 6.67719C8.07874 6.51646 8.27964 6.33446 8.42619 6.13119C8.57273 5.92319 8.64601 5.67501 8.64601 5.38665C8.64601 4.95174 8.4711 4.60901 8.12128 4.35846C7.77619 4.10792 7.29401 3.98265 6.67474 3.98265C6.24455 3.98265 5.87346 4.04646 5.56146 4.1741C5.24946 4.30174 5.01074 4.47901 4.84528 4.70592C4.67983 4.93283 4.5971 5.19756 4.5971 5.5001C4.5971 5.61828 4.61365 5.74592 4.64674 5.88301L5.57564 5.9681C5.54255 5.85937 5.52601 5.73646 5.52601 5.59937C5.52601 5.31101 5.62765 5.08646 5.83092 4.92574C6.03892 4.76501 6.31783 4.68465 6.66764 4.68465C6.99383 4.68465 7.24674 4.75556 7.42637 4.89737C7.60601 5.03919 7.69583 5.22119 7.69583 5.44337C7.69583 5.64192 7.64855 5.80501 7.55401 5.93265C7.45946 6.06028 7.32237 6.17846 7.14274 6.28719L6.66764 6.57083C6.46437 6.69374 6.32019 6.83083 6.2351 6.9821ZM6.02946 9.15901H7.0931V8.23719H6.02946V9.15901Z" fill="#303030" fill-opacity="0.66"/>
</svg>
