<svg width="20" height="20" viewBox="0 0 20 20" fill="none" xmlns="http://www.w3.org/2000/svg">
<path fill-rule="evenodd" clip-rule="evenodd" d="M9.5 5.1859L6.0355 8.17991C5.67216 8.49391 5.20798 8.66669 4.72777 8.66669L2.5 8.66669V11.3334H4.72777C5.20798 11.3334 5.67216 11.5061 6.0355 11.8201L9.5 14.8141L9.5 5.1859ZM5.38163 7.4233C5.19997 7.5803 4.96788 7.66669 4.72777 7.66669H2.5C1.94772 7.66669 1.5 8.1144 1.5 8.66669V11.3334C1.5 11.8856 1.94772 12.3334 2.5 12.3334H4.72777C4.96788 12.3334 5.19997 12.4197 5.38163 12.5767L8.84614 15.5708C9.49399 16.1306 10.5 15.6704 10.5 14.8141V5.1859C10.5 4.32964 9.49399 3.86941 8.84614 4.42928L5.38163 7.4233Z" fill="#DCDCDC"/>
<path fill-rule="evenodd" clip-rule="evenodd" d="M12.2595 5.46101C12.5571 5.17298 13.0319 5.1808 13.32 5.47847C14.6034 6.80486 15.305 8.39254 15.2466 10.0526C15.1884 11.7102 14.3789 13.2672 13.0128 14.5473C12.7106 14.8305 12.2359 14.8151 11.9527 14.5128C11.6695 14.2106 11.6849 13.736 11.9872 13.4527C13.1288 12.383 13.7061 11.1805 13.7476 9.99999C13.7889 8.82201 13.2987 7.61363 12.242 6.52153C11.954 6.22386 11.9618 5.74905 12.2595 5.46101Z" fill="#DCDCDC"/>
<path fill-rule="evenodd" clip-rule="evenodd" d="M14.4 3.46101C14.6976 3.17298 15.1724 3.1808 15.4605 3.47847C17.329 5.40948 18.3284 7.69618 18.2452 10.0658C18.1621 12.4328 17.0058 14.6798 15.0128 16.5473C14.7106 16.8305 14.2359 16.8151 13.9527 16.5128C13.6695 16.2106 13.6849 15.736 13.9872 15.4527C15.7557 13.7955 16.6797 11.9032 16.7461 10.0131C16.8124 8.12565 16.0243 6.21826 14.3825 4.52153C14.0945 4.22386 14.1023 3.74905 14.4 3.46101Z" fill="#DCDCDC"/>
</svg>
