<svg width="22" height="16" viewBox="0 0 22 16" fill="none" xmlns="http://www.w3.org/2000/svg">
<path fill-rule="evenodd" clip-rule="evenodd" d="M20 1.5H2C1.44772 1.5 1 1.94772 1 2.5V13.5C1 14.0523 1.44772 14.5 2 14.5H20C20.5523 14.5 21 14.0523 21 13.5V2.5C21 1.94771 20.5523 1.5 20 1.5ZM2 0.5C0.895431 0.5 0 1.39543 0 2.5V13.5C0 14.6046 0.89543 15.5 2 15.5H20C21.1046 15.5 22 14.6046 22 13.5V2.5C22 1.39543 21.1046 0.5 20 0.5H2Z" fill="#303030"/>
<path fill-rule="evenodd" clip-rule="evenodd" d="M9 3.5H3V12.5H9V3.5ZM3 2.5C2.44772 2.5 2 2.94771 2 3.5V12.5C2 13.0523 2.44772 13.5 3 13.5H9C9.55228 13.5 10 13.0523 10 12.5V3.5C10 2.94772 9.55228 2.5 9 2.5H3Z" fill="#303030"/>
<path fill-rule="evenodd" clip-rule="evenodd" d="M19 3.5H12L12 6.5H19V3.5ZM12 2.5C11.4477 2.5 11 2.94772 11 3.5V6.5C11 7.05228 11.4477 7.5 12 7.5H19C19.5523 7.5 20 7.05228 20 6.5V3.5C20 2.94772 19.5523 2.5 19 2.5H12Z" fill="#303030"/>
<path fill-rule="evenodd" clip-rule="evenodd" d="M19 9.5H12L12 12.5H19V9.5ZM12 8.5C11.4477 8.5 11 8.94772 11 9.5V12.5C11 13.0523 11.4477 13.5 12 13.5H19C19.5523 13.5 20 13.0523 20 12.5V9.5C20 8.94772 19.5523 8.5 19 8.5H12Z" fill="#303030"/>
</svg>
