<svg width="26" height="20" viewBox="0 0 26 20" fill="none" xmlns="http://www.w3.org/2000/svg">
    <g filter="url(#filter0_d_4891_11898)">
        <path fill-rule="evenodd" clip-rule="evenodd"
            d="M22 3.5H4C3.44772 3.5 3 3.94772 3 4.5V15.5C3 16.0523 3.44772 16.5 4 16.5H22C22.5523 16.5 23 16.0523 23 15.5V4.5C23 3.94771 22.5523 3.5 22 3.5ZM4 2.5C2.89543 2.5 2 3.39543 2 4.5V15.5C2 16.6046 2.89543 17.5 4 17.5H22C23.1046 17.5 24 16.6046 24 15.5V4.5C24 3.39543 23.1046 2.5 22 2.5H4Z"
            fill="#DCDCDC" />
        <path fill-rule="evenodd" clip-rule="evenodd"
            d="M11 5.5H5V14.5H11V5.5ZM5 4.5C4.44772 4.5 4 4.94771 4 5.5V14.5C4 15.0523 4.44772 15.5 5 15.5H11C11.5523 15.5 12 15.0523 12 14.5V5.5C12 4.94772 11.5523 4.5 11 4.5H5Z"
            fill="#DCDCDC" />
        <path fill-rule="evenodd" clip-rule="evenodd"
            d="M21 5.5H14L14 8.5H21V5.5ZM14 4.5C13.4477 4.5 13 4.94772 13 5.5V8.5C13 9.05228 13.4477 9.5 14 9.5H21C21.5523 9.5 22 9.05228 22 8.5V5.5C22 4.94772 21.5523 4.5 21 4.5H14Z"
            fill="#DCDCDC" />
        <path fill-rule="evenodd" clip-rule="evenodd"
            d="M21 11.5H14L14 14.5H21V11.5ZM14 10.5C13.4477 10.5 13 10.9477 13 11.5V14.5C13 15.0523 13.4477 15.5 14 15.5H21C21.5523 15.5 22 15.0523 22 14.5V11.5C22 10.9477 21.5523 10.5 21 10.5H14Z"
            fill="#DCDCDC" />
    </g>
    <defs>
        <filter id="filter0_d_4891_11898" x="0" y="0" width="24" height="25" filterUnits="userSpaceOnUse"
            color-interpolation-filters="sRGB">
            <feFlood flood-opacity="0" result="BackgroundImageFix" />
            <feColorMatrix in="SourceAlpha" type="matrix" values="0 0 0 0 0 0 0 0 0 0 0 0 0 0 0 0 0 0 127 0"
                result="hardAlpha" />
            <feOffset />
            <feGaussianBlur stdDeviation="1" />
            <feComposite in2="hardAlpha" operator="out" />
            <feColorMatrix type="matrix" values="0 0 0 0 0 0 0 0 0 0 0 0 0 0 0 0 0 0 0.15 0" />
            <feBlend mode="normal" in2="BackgroundImageFix" result="effect1_dropShadow_4891_11904" />
            <feBlend mode="normal" in="SourceGraphic" in2="effect1_dropShadow_4891_11904" result="shape" />
        </filter>
    </defs>
</svg>